<ttFont>
          <CharString index="0">
            25 callsubr
            -99 -427 rlineto
            -7 -32 -6 -43 -36 vvcurveto
            -106 83 -48 124 160 80 73 170 39 vhcurveto
            104 449 -60 callsubr
            -104 -449 rlineto
            -84 -19 -23 -39 -87 hhcurveto
            -50 -32 10 47 24 4 21 5 21 hvcurveto
            return
          </CharString>
          <CharString index="1">
            -160 -93 -180 -154 -134 73 -55 124 168 85 180 154 134 -73 55 -124 hvcurveto
            -56 -409 rmoveto
            -42 -22 27 46 104 44 118 76 42 22 -27 -46 -104 -44 -118 -76 hvcurveto
            return
          </CharString>
          <CharString index="2">
            rmoveto
            -85 -46 -32 -57 -14 hvcurveto
            -13 -51 22 -20 0 vvcurveto
            0 -38 -24 -11 -45 vhcurveto
            -79 -20 39 -26 83 hhcurveto
            82 52 26 79 20 hvcurveto
            13 50 -27 18 0 vvcurveto
            0 34 26 11 45 vhcurveto
            58 14 -32 32 -84 hhcurveto
            -62 -249 rmoveto
            -13 -4 9 13 4 hvcurveto
            2 8 8 11 8 6 rrcurveto
            14 hlineto
            4 -6 4 -11 -2 -8 rrcurveto
            -13 -4 -8 -9 -13 hhcurveto
            41 164 rmoveto
            12 4 -7 -12 -3 hvcurveto
            -2 -8 -8 -11 -7 -6 rrcurveto
            -14 hlineto
            -3 6 -4 11 2 8 rrcurveto
            13 4 8 6 11 hhcurveto
            endchar
          </CharString>
          <CharString index="3">
            27 120 rlineto
            -261 hlineto
            37 160 rlineto
            205 hlineto
            28 120 rlineto
            -206 hlineto
            37 160 rlineto
            260 hlineto
            28 120 rlineto
            -399 hlineto
            endchar
          </CharString>
          <CharString index="4">
            226 -230 rmoveto
            151 90 81 117 90 -75 26 -67 10 hvcurveto
            -68 10 -26 5 17 vvcurveto
            16 15 20 0 vhcurveto
            0 18 -5 25 122 87 83 101 21 -2 19 -2 11 vhcurveto
            58 hlineto
            25 108 -146 -6 rlineto
            0 -72 18 -49 -126 -81 -84 -112 -67 27 -34 41 -24 vhcurveto
            0 -60 -51 -45 vvcurveto
            -24 4 -13 16 -16 vhcurveto
            -56 -27 -66 -38 -70 vvcurveto
            -100 88 -37 129 vhcurveto
            47 221 rmoveto
            41 -7 27 -5 -27 vvcurveto
            return
          </CharString>
          <CharString index="5">
            0 -74 31 -106 -108 -100 -68 -130 -72 54 -28 85 -24 vhcurveto
            42 -12 20 -8 -18 vvcurveto
            -28 -18 -21 -55 -67 -96 18 0 vhcurveto
            -25 -98 rlineto
            0 76 -34 97 130 95 60 130 77 -48 19 -85 27 vhcurveto
            -54 17 -17 8 22 vvcurveto
            27 21 22 41 vhcurveto
            return
          </CharString>
          <CharString index="6">
            rmoveto
            26 66 -14 0 hvcurveto
            -46 -193 rlineto
            0 -76 -89 -41 -41 -10 25 43 91 41 137 81 vhcurveto
            return
          </CharString>
          <CharString index="7">
            rmoveto
            -36 -32 -5 -19 -26 hvcurveto
            -34 -25 -25 -47 -18 -73 rrcurveto
            -128 -32 35 -37 85 hhcurveto
            37 32 4 18 26 hvcurveto
            34 24 23 46 18 73 rrcurveto
            128 32 -37 41 -82 hhcurveto
            -23 -95 rmoveto
            14 3 -8 -66 -17 hvcurveto
            -65 -16 -6 -5 -14 hhcurveto
            -13 -5 5 65 16 hvcurveto
            66 17 8 8 13 hhcurveto
            endchar
          </CharString>
          <CharString index="8">
            rmoveto
            hintmask 11101000
            -58 -191 75 -11 rlineto
            0 18 4 9 10 3 -5 -11 -3 vhcurveto
            -10 -2 -10 -5 -17 hhcurveto
            -37 -53 9 0 hvcurveto
            -30 -85 rlineto
            0 63 -14 52 vhcurveto
            hintmask 11110000
            80 45 31 80 21 hvcurveto
            69 17 -29 30 -57 hhcurveto
            -16 -29 -6 0 hvcurveto
            9 25 rlineto
            124 hlineto
            22 90 rlineto
            endchar
          </CharString>
          <CharString index="9">
            rmoveto
            105 hlineto
            8 35 rlineto
            11 hlineto
            24 95 rlineto
            -11 hlineto
            23 90 rlineto
            -91 hlineto
            -37 -90 rlineto
            -27 hlineto
            97 182 rlineto
            -118 hlineto
            -89 -189 -22 -88 rlineto
            135 hlineto
            endchar
          </CharString>
          <CharString index="10">
            -13 callsubr
            -12 callgsubr
            -28 callgsubr
            vhcurveto
            54 235 -64 callsubr
            -7 callgsubr
            -7 -29 -14 -64 -33 vvcurveto
            return
          </CharString>
          <CharString index="11">
            rmoveto
            -103 -14 41 -53 102 hhcurveto
            122 64 60 96 32 hvcurveto
            15 callgsubr
            -30 -11 -20 -14 -32 hhcurveto
            -37 -7 21 23 2 hvcurveto
            endchar
          </CharString>
          <CharString index="12">
            -25 -50 43 -55 hhcurveto
            -48 -67 -65 0 hvcurveto
            3 -92 rlineto
            0 59 40 27 vhcurveto
            return
          </CharString>
          <CharString index="13">
            rmoveto
            -4 -500 rlineto
            83 hlineto
            -103 -210 rlineto
            133 hlineto
            332 710 rlineto
            -135 hlineto
            -174 -389 rlineto
            -15 hlineto
            14 389 rlineto
            return
          </CharString>
          <CharString index="14">
            rmoveto
            142 hlineto
            62 55 26 -55 rlineto
            122 hlineto
            -96 152 rlineto
            return
          </CharString>
          <CharString index="15">
            rmoveto
            -29 -500 rlineto
            219 hlineto
            126 311 -19 -311 rlineto
            223 hlineto
            204 500 rlineto
            -135 hlineto
            -149 -386 rlineto
            -23 hlineto
            20 376 rlineto
            -152 hlineto
            -159 -376 rlineto
            -23 hlineto
            32 386 rlineto
            return
          </CharString>
          <CharString index="16">
            rmoveto
            -61 -16 23 -48 65 hhcurveto
            62 51 40 68 16 hvcurveto
            60 14 -21 48 -66 hhcurveto
            -64 -49 -46 -61 -15 hvcurveto
            72 hmoveto
            16 5 14 11 17 hhcurveto
            14 13 -11 -17 -5 hvcurveto
            -16 -5 -14 -13 -17 hhcurveto
            -17 -10 15 15 5 hvcurveto
            return
          </CharString>
          <CharString index="17">
            154 58 217 152 88 99 -20 0 vhcurveto
            32 100 rlineto
            0 -98 40 -110 -250 -113 -236 -254 -143 78 -71 147 126 68 26 0 vhcurveto
            85 364 rlineto
            -201 hlineto
            return
          </CharString>
          <CharString index="18">
            rmoveto
            0 callsubr
            -105 hlineto
            29 128 -64 callsubr
            -29 -128 rlineto
            -51 hlineto
            -30 -114 rlineto
            54 hlineto
            -44 -188 rlineto
            -8 -33 -7 -38 -31 vvcurveto
            -59 38 -49 75 59 53 23 0 vhcurveto
            11 96 rlineto
            0 -42 -5 -26 -21 -8 9 19 14 4 25 4 17 vhcurveto
            46 200 rlineto
            return
          </CharString>
          <CharString index="19">
            rmoveto
            -131 hlineto
            -53 -57 -29 57 rlineto
            -132 hlineto
            93 -151 rlineto
            92 hlineto
            return
          </CharString>
          <CharString index="20">
            -106 -92 -50 -171 -166 vvcurveto
            -144 82 -64 132 vhcurveto
            return
          </CharString>
          <CharString index="21">
            -21 -37 -23 -12 -55 -6 -25 vhcurveto
            -54 -235 rlineto
            -5 callsubr
            18 callgsubr
            7 30 14 return
          </CharString>
          <CharString index="22">
            -97 -24 31 -49 77 hhcurveto
            77 55 49 97 24 hvcurveto
            97 24 -31 48 -77 hhcurveto
            -77 -55 -48 -97 -24 hvcurveto
            98 hmoveto
            46 11 9 19 18 hhcurveto
            18 -1 -19 -46 -11 hvcurveto
            -46 -12 -9 -20 -18 hhcurveto
            -18 1 20 46 12 hvcurveto
            return
          </CharString>
          <CharString index="23">
            71 24 -29 -73 -114 -38 -148 -66 -66 hvcurveto
            return
          </CharString>
          <CharString index="24">
            rmoveto
            -112 71 -44 113 70 90 27 0 vhcurveto
            14 105 rlineto
            0 -73 -12 -70 -45 -28 5 45 37 33 27 71 50 vhcurveto
            56 40 32 36 6 34 rrcurveto
            hintmask 1011101011100000
            8 41 0 49 0 vvcurveto
            -126 hlineto
            hintmask 1011110011100000
            -9 -40 -5 -22 -21 -26 -36 -25 rlinecurve
            -110 -76 -41 -44 -95 vvcurveto
            402 536 rmoveto
            -136 hlineto
            hintmask 1011100111100000
            -38 -168 rlineto
            136 hlineto
            endchar
          </CharString>
          <CharString index="25">
            rmoveto
            48 -20 23 -41 23 vhcurveto
            68 24 32 31 19 78 24 126 rcurveline
            hintmask 11010000
            10 39 21 28 58 5 22 115 rcurveline
            -133 -5 -66 -37 -34 -114 rrcurveto
            0 -22 -122 -7 -24 vhcurveto
            -11 -42 -10 -22 -88 -23 -24 -95 rcurveline
            51 -27 16 -28 -30 -40 -42 -117 -41 vvcurveto
            -80 63 -45 96 vhcurveto
            31 115 rlineto
            -38 -20 18 30 hvcurveto
            36 45 115 38 vvcurveto
            endchar
          </CharString>
          <CharString index="26">
            -56 callgsubr
            157 680 -60 callsubr
            return
          </CharString>
          <CharString index="27">
            rmoveto
            123 hlineto
            -107 -237 rlineto
            -113 hlineto
            return
          </CharString>
          <CharString index="28">
            100 37 162 71 70 vhcurveto
            -73 callsubr
          </CharString>
          <CharString index="29">
            -3 21 -21 396 116 188 -20 hstem
            216 134 52 139 vstem
            29 callgsubr
            65 60 31 35 5 -86 callsubr
            61 35 vvcurveto
            78 -31 63 -91 -66 -59 -59 0 vhcurveto
            56 247 -64 callsubr
            -161 -700 rlineto
            return
          </CharString>
          <CharString index="30">
            rmoveto
            30 -74 55 32 -48 -195 rlineto
            106 hlineto
            77 312 rlineto
            -96 hlineto
            return
          </CharString>
          <CharString index="31">
            rmoveto
            258 hlineto
            -5 -24 -351 -399 -31 -137 rlineto
            418 hlineto
            28 120 rlineto
            -262 hlineto
            6 24 353 397 32 139 rlineto
            -418 hlineto
            endchar
          </CharString>
          <CharString index="32">
            -74 callsubr
            -4 -118 rlineto
            return
          </CharString>
          <CharString index="33">
            -56 callgsubr
            53 118 rlineto
            198 hlineto
            return
          </CharString>
          <CharString index="34">
            22 22 29 8 30 hhcurveto
            -105 callgsubr
            endchar
          </CharString>
          <CharString index="35">
            -78 31 -63 91 66 61 61 0 vhcurveto
            return
          </CharString>
          <CharString index="36">
            rmoveto
            99 hlineto
            -3 -13 -139 -183 121 -21 150 221 25 101 rlineto
            -227 hlineto
            endchar
          </CharString>
          <CharString index="37">
            rmoveto
            -64 -110 229 -79 56 99 rlineto
            return
          </CharString>
          <CharString index="38">
            -40 -33 19 40 12 1 14 2 8 return
          </CharString>
          <CharString index="39">
            -63 callsubr
            endchar
          </CharString>
          <CharString index="40">
            rmoveto
            -19 callsubr
            -13 callsubr
            vhcurveto
            hintmask 10011000
            -12 callgsubr
            -28 callgsubr
            hvcurveto
            -44 callgsubr
          </CharString>
          <CharString index="41">
            rmoveto
            -55 callgsubr
            -49 -210 rlineto
            0 -78 21 -42 -166 -86 -184 -162 -112 48 -65 96 72 56 64 0 vhcurveto
            -9 -52 rlineto
            130 hlineto
            -93 174 rmoveto
            0 -76 -72 -37 -36 -15 28 36 91 41 140 75 38 58 -14 0 vhcurveto
            endchar
          </CharString>
          <CharString index="42">
            -40 -12 114 93 99 109 108 return
          </CharString>
          <CharString index="43">
            rlineto
            -55 callgsubr
            return
          </CharString>
          <CharString index="44">
            -35 callgsubr
            77 -93 callgsubr
            return
          </CharString>
          <CharString index="45">
            rmoveto
            -31 7 callsubr
            206 hlineto
            198 494 -33 -494 rlineto
            200 hlineto
            return
          </CharString>
          <CharString index="46">
            rmoveto
            308 hlineto
            26 109 rlineto
            -309 hlineto
            endchar
          </CharString>
          <CharString index="47">
            rlineto
            -66 callgsubr
            return
          </CharString>
          <CharString index="48">
            -54 callgsubr
            95 -386 -61 callgsubr
          </CharString>
          <CharString index="49">
            -21 118 120 322 120 -99 -21 120 -20 return
          </CharString>
          <CharString index="50">
            0 -30 -3 -7 -10 -3 7 7 return
          </CharString>
          <CharString index="51">
            141 207 104 153 rlineto
            -8 vlineto
            -114 -38 -148 -66 -66 vhcurveto
            -23 -23 -30 -11 -31 hhcurveto
            -96 92 rmoveto
            10 vlineto
            27 callsubr
            24 18 -3 -7 14 hvcurveto
            return
          </CharString>
          <CharString index="52">
            -129 -560 6 callsubr
            129 560 rlineto
            151 hlineto
            28 120 rlineto
            -438 hlineto
            endchar
          </CharString>
          <CharString index="53">
            -77 callgsubr
            21 -39 callgsubr
            -238 hlineto
            return
          </CharString>
          <CharString index="54">
            0 13 91 14 62 vhcurveto
            return
          </CharString>
          <CharString index="55">
            rmoveto
            116 hlineto
            32 137 22 callgsubr
          </CharString>
          <CharString index="56">
            -84 -12 114 87 112 80 99 -83 114 return
          </CharString>
          <CharString index="57">
            -35 -151 rlineto
            0 -29 -5 -34 -60 -40 26 67 return
          </CharString>
          <CharString index="58">
            -6 callsubr
            464 120 return
          </CharString>
          <CharString index="59">
            -20 9 -21 409 114 return
          </CharString>
          <CharString index="60">
            rmoveto
            0 -62 -39 -24 vhcurveto
            return
          </CharString>
          <CharString index="61">
            31 callsubr
            hintmask 10110000
            3 callsubr
            hintmask 01110000
            -23 -23 -30 -11 -31 hhcurveto
            return
          </CharString>
          <CharString index="62">
            rmoveto
            hintmask 11000000
            0 236 299 317 vvcurveto
            158 -29 97 0 vhcurveto
            hintmask 10100000
            -128 hlineto
            0 16 -115 -140 vvcurveto
            -287 -220 -329 0 vhcurveto
            endchar
          </CharString>
          <CharString index="63">
            -93 callgsubr
            endchar
          </CharString>
          <CharString index="64">
            78 -31 63 -91 -66 -61 -61 0 vhcurveto
            6 49 rlineto
            -128 hlineto
            -115 -500 rlineto
            return
          </CharString>
          <CharString index="65">
            rmoveto
            116 hlineto
            34 138 rlineto
            -118 hlineto
            return
          </CharString>
          <CharString index="66">
            126 500 -94 callsubr
            return
          </CharString>
          <CharString index="67">
            -121 rmoveto
            87 128 rlineto
            -12 31 36 -7 42 hhcurveto
            21 callgsubr
            61 -16 46 -27 33 vhcurveto
            102 150 return
          </CharString>
          <CharString index="68">
            -74 31 -91 -133 rlineto
            14 -32 -39 6 -44 hhcurveto
            -75 -65 -23 -44 -51 hvcurveto
            -106 -92 -50 -171 -166 vvcurveto
            -62 15 -47 28 -34 vhcurveto
            -91 -134 rlineto
            return
          </CharString>
          <CharString index="69">
            rmoveto
            188 hlineto
            -251 -274 -25 -112 rlineto
            345 hlineto
            29 114 rlineto
            -192 hlineto
            252 275 28 111 rlineto
            -345 hlineto
            endchar
          </CharString>
          <CharString index="70">
            -309 rmoveto
            113 hlineto
            107 237 rlineto
            -123 hlineto
            return
          </CharString>
          <CharString index="71">
            680 rmoveto
            -122 hlineto
            -61 -251 rlineto
            123 hlineto
            return
          </CharString>
          <CharString index="72">
            135 rlineto
            return
          </CharString>
          <CharString index="73">
            244 107 247 226 163 -106 44 -118 hvcurveto
            -214 hlineto
            return
          </CharString>
          <CharString index="74">
            83 20 -51 34 -71 hhcurveto
            -76 -64 -36 -81 -20 hvcurveto
            return
          </CharString>
          <CharString index="75">
            137 255 rlineto
            -132 hlineto
            -105 -255 rlineto
            return
          </CharString>
          <CharString index="76">
            rmoveto
            121 193 -109 45 return
          </CharString>
          <CharString index="77">
            -157 7 callsubr
            return
          </CharString>
          <CharString index="78">
            hlineto
            -24 callgsubr
            return
          </CharString>
          <CharString index="79">
            -86 175 rlineto
            return
          </CharString>
          <CharString index="80">
            -48 -102 44 -55 hhcurveto
            -60 -64 -52 0 hvcurveto
            10 -107 rlineto
            0 62 39 48 vhcurveto
            hintmask 10100000
            39 113 -44 54 hhcurveto
            61 54 51 0 hvcurveto
            return
          </CharString>
          <CharString index="81">
            rlineto
            453 473 rmoveto
            -124 -53 -229 -144 vhcurveto
            -90 hlineto
            return
          </CharString>
          <CharString index="82">
            120 160 120 return
          </CharString>
          <CharString index="83">
            2 callgsubr
            20 667 10 14 7 17 5 19 rlinecurve
            return
          </CharString>
          <CharString index="84">
            rmoveto
            164 188 -89 67 -156 -190 rlineto
            -113 -65 rmoveto
            164 188 -89 66 -155 -189 rlineto
            endchar
          </CharString>
          <CharString index="85">
            43 21 -21 216 118 228 118 return
          </CharString>
          <CharString index="86">
            rmoveto
            -73 callgsubr
            163 -135 rmoveto
            -73 callgsubr
            endchar
          </CharString>
          <CharString index="87">
            rmoveto
            -146 hlineto
            -54 callgsubr
            return
          </CharString>
          <CharString index="88">
            -77 -336 rlineto
            return
          </CharString>
          <CharString index="89">
            95 hlineto
            138 264 rmoveto
            -75 -42 -71 -75 vhcurveto
            -89 hlineto
            53 228 rlineto
            77 hlineto
            57 19 -25 -57 hvcurveto
            endchar
          </CharString>
          <CharString index="90">
            -273 14 callgsubr
            return
          </CharString>
          <CharString index="91">
            -52 -189 -21 321 -20 409 -20 return
          </CharString>
          <CharString index="92">
            rmoveto
            -54 callsubr
            return
          </CharString>
          <CharString index="93">
            97 24 55 48 77 hhcurveto
            77 31 -48 -97 -24 hvcurveto
            -97 -24 -55 -49 -77 hhcurveto
            -77 -31 49 97 24 hvcurveto
            return
          </CharString>
          <CharString index="94">
            0 -63 -60 -32 return
          </CharString>
          <CharString index="95">
            142 71 127 -118 126 -120 136 30 138 61 46 26 32 hintmask 0111110011100000
            return
          </CharString>
          <CharString index="96">
            68 294 rlineto
            -138 16 callsubr
            61 266 76 7 rlineto
            endchar
          </CharString>
          <CharString index="97">
            4 callgsubr
            hintmask 11100000
            -80 hlineto
            return
          </CharString>
          <CharString index="98">
            772 -70 callsubr
            return
          </CharString>
          <CharString index="99">
            -35 callsubr
            3 callgsubr
            return
          </CharString>
          <CharString index="100">
            107 -68 42 -107 return
          </CharString>
          <CharString index="101">
            -12 120 return
          </CharString>
          <CharString index="102">
            134 hlineto
            return
          </CharString>
          <CharString index="103">
            129 vstem
            196 425 rmoveto
            -32 callsubr
            return
          </CharString>
          <CharString index="104">
            -88 callsubr
            endchar
          </CharString>
          <CharString index="105">
            -182 21 -21 372 140 return
          </CharString>
          <CharString index="106">
            77 336 rlineto
            0 return
          </CharString>
          <CharString index="107">
            28 114 rlineto
            return
          </CharString>
          <CharString index="108">
            5 callgsubr
            rlineto
            return
          </CharString>
          <CharString index="109">
            715 -77 callsubr
            return
          </CharString>
          <CharString index="110">
            -53 callgsubr
            -84 callsubr
            return
          </CharString>
          <CharString index="111">
            43 131 -120 -21 283 120 0 0 27 -20 hstem
            169 100 return
          </CharString>
          <CharString index="112">
            135 0 0 147 -20 553 -20 return
          </CharString>
          <CharString index="113">
            rlineto
            -56 callgsubr
            return
          </CharString>
          <CharString index="114">
            -680 rlineto
            return
          </CharString>
          <CharString index="115">
            rlineto
            76 hlineto
            68 42 -19 -68 hvcurveto
            endchar
          </CharString>
          <CharString index="116">
            92 42 86 114 -20 hstem
            return
          </CharString>
          <CharString index="117">
            hstemhm
            87 139 104 128 return
          </CharString>
          <CharString index="118">
            -214 118 111 -20 return
          </CharString>
          <CharString index="119">
            138 19 138 return
          </CharString>
          <CharString index="120">
            55 hmoveto
            -5 callsubr
            return
          </CharString>
          <CharString index="121">
            65 103 -16 0 hvcurveto
            return
          </CharString>
          <CharString index="122">
            -181 -189 -21 910 -20 hstem
            157 134 vstem
            157 return
          </CharString>
          <CharString index="123">
            hlineto
            -30 callsubr
            138 hlineto
            return
          </CharString>
          <CharString index="124">
            rlineto
            132 hlineto
            return
          </CharString>
          <CharString index="125">
            hstem
            80 136 return
          </CharString>
          <CharString index="126">
            7 43 132 return
          </CharString>
          <CharString index="127">
            168 -135 rmoveto
            109 hlineto
            -17 callgsubr
            return
          </CharString>
          <CharString index="128">
            rmoveto
            135 hlineto
            hintmask 10100000
            38 169 rlineto
            -135 hlineto
            endchar
          </CharString>
          <CharString index="129">
            114 hstem
            return
          </CharString>
          <CharString index="130">
            rmoveto
            -160 -93 -180 -154 -65 17 -46 31 -30 hvcurveto
            return
          </CharString>
          <CharString index="131">
            -32 callsubr
            endchar
          </CharString>
          <CharString index="132">
            rmoveto
            -66 callgsubr
            return
          </CharString>
          <CharString index="133">
            -187 -12 114 284 114 128 -20 hstem
            return
          </CharString>
          <CharString index="134">
            100 37 162 71 70 vhcurveto
            -53 callgsubr
            return
          </CharString>
          <CharString index="135">
            rmoveto
            253 hlineto
            30 120 rlineto
            -253 hlineto
            endchar
          </CharString>
          <CharString index="136">
            hstemhm
            -6 callgsubr
            141 134 return
          </CharString>
          <CharString index="137">
            174 138 198 152 205 138 return
          </CharString>
          <CharString index="138">
            rmoveto
            -69 callgsubr
            return
          </CharString>
          <CharString index="139">
            458 -21 251 -20 hstemhm
            109 115 -57 return
          </CharString>
          <CharString index="140">
            110 38 108 vstem
            return
          </CharString>
          <CharString index="141">
            110 38 110 vstem
            return
          </CharString>
          <CharString index="142">
            125 79 128 -112 141 hintmask 10100000
            return
          </CharString>
          <CharString index="143">
            44 19 120 14 130 103 130 hstemhm
            return
          </CharString>
          <CharString index="144">
            -116 -120 -164 vhcurveto
            62 hmoveto
            122 return
          </CharString>
          <CharString index="145">
            -4 -118 6 callsubr
            return
          </CharString>
          <CharString index="146">
            130 58 146 return
          </CharString>
          <CharString index="147">
            -4 -17 -9 -61 0 vvcurveto
            133 5 rlineto
            return
          </CharString>
          <CharString index="148">
            349 21 -21 127 -20 573 -20 return
          </CharString>
          <CharString index="149">
            112 83 114 513 112 hstem
            return
          </CharString>
          <CharString index="150">
            107 123 161 154 -107 130 return
          </CharString>
        <CharString name=".notdef">
          -293 endchar
        </CharString>
        <CharString name=".null">
          -516 endchar
        </CharString>
        <CharString name="A">
          35 21 -58 callsubr
          hstemhm
          13 138 247 138 hintmask 11011110
          13 hmoveto
          -54 callsubr
          hintmask 11100110
          -85 callgsubr
          endchar
        </CharString>
        <CharString name="AE">
          -84 callgsubr
          endchar
        </CharString>
        <CharString name="AEacute">
          -84 callgsubr
          238 518 -68 callsubr
        </CharString>
        <CharString name="Aacute">
          35 21 -58 callsubr
          hstemhm
          13 138 125 57 65 138 hintmask 11011111
          354 -78 callgsubr
          -331 -871 -51 callgsubr
        </CharString>
        <CharString name="Abreve">
          35 21 -58 callsubr
          123 105 hstemhm
          13 138 172 122 -47 138 -3 122 hintmask 1101111101000000
          323 927 rmoveto
          -94 callgsubr
          -432 -927 rmoveto
          -74 callsubr
          hintmask 1101111010000000
          -16 callgsubr
          hintmask 1110011101000000
          -85 callgsubr
          endchar
        </CharString>
        <CharString name="Acircumflex">
          35 0 118 -118 834 -34 -21 152 -20 hstemhm
          273 142 114 96 hintmask 10111100
          273 779 rmoveto
          142 hlineto
          hintmask 01011100
          62 55 rlineto
          hintmask 10111100
          26 -55 rlineto
          122 hlineto
          -96 152 rlineto
          -80 hlineto
          -436 -931 rmoveto
          138 hlineto
          53 118 rlineto
          198 hlineto
          -62 callgsubr
        </CharString>
        <CharString name="Adieresis">
          35 0 923 -902 -21 118 805 -114 -21 135 -20 hstemhm
          308 110 89 109 hintmask 01011110
          308 -65 callgsubr
          33 -35 callsubr
          -111 hlineto
          hintmask 10000110
          -525 -923 rmoveto
          -56 callgsubr
          hintmask 01100110
          53 118 rlineto
          198 hlineto
          hintmask 10000110
          -62 callgsubr
        </CharString>
        <CharString name="Agrave">
          35 21 -58 callsubr
          hstemhm
          13 138 113 56 78 138 hintmask 11011111
          383 -72 callgsubr
          -592 -859 -51 callgsubr
        </CharString>
        <CharString name="Amacron">
          36 callgsubr
          235 -88 -21 hstemhm
          13 138 137 327 hintmask 01101110
          288 806 rmoveto
          327 hlineto
          hintmask 01110110
          25 109 rlineto
          -327 hlineto
          hintmask 10001110
          -300 -915 rmoveto
          -77 callgsubr
          hintmask 10010110
          -48 callgsubr
          -85 callgsubr
          endchar
        </CharString>
        <CharString name="Aogonek">
          35 11 callsubr
          26 -58 callsubr
          hstemhm
          13 138 167 144 -64 138 hintmask 1011011101000000
          13 hmoveto
          -75 callsubr
          10 hlineto
          hintmask 1101011110000000
          -38 -31 -52 -55 -51 -67 callgsubr
          vhcurveto
          hintmask 1011011101000000
          22 41 42 25 18 vhcurveto
          8 5 hlineto
          21 675 rlineto
          -238 hlineto
          hintmask 1101100110000000
          -85 callgsubr
          endchar
        </CharString>
        <CharString name="Aring">
          40 callgsubr
          hstemhm
          402 176 -102 102 hintmask 10011000
          -24 callsubr
          hintmask 01100100
          -33 callsubr
          -5 -20 -1 -16 3 -15 rrcurveto
          hintmask 10011000
          87 -106 rmoveto
          21 hlineto
          -14 -322 rlineto
          -151 hlineto
          146 479 rmoveto
          -32 callgsubr
          hintmask 10101000
          24 callgsubr
        </CharString>
        <CharString name="Aringacute">
          40 callgsubr
          139 -21 hstemhm
          402 176 -102 102 hintmask 10011100
          -24 callsubr
          hintmask 01101010
          -33 callsubr
          -5 -20 -1 -16 3 -15 rrcurveto
          hintmask 10011100
          42 190 -35 callgsubr
          78 -93 callgsubr
          55 -403 rmoveto
          21 hlineto
          -14 -322 rlineto
          -151 hlineto
          146 479 rmoveto
          -32 callgsubr
          hintmask 10101100
          24 callgsubr
        </CharString>
        <CharString name="Atilde">
          35 0 842 -821 -21 118 822 -161 -20 198 -21 hstemhm
          285 84 175 87 hintmask 01011110
          631 936 rmoveto
          0 -62 -38 -25 vhcurveto
          hintmask 01100110
          -25 -62 42 -60 hhcurveto
          -48 -68 -64 0 hvcurveto
          4 -93 rlineto
          0 59 39 25 vhcurveto
          hintmask 01011110
          37 63 -43 50 hhcurveto
          hintmask 10001110
          50 64 63 0 hvcurveto
          -620 -842 rmoveto
          -56 callgsubr
          hintmask 01100110
          53 118 rlineto
          198 hlineto
          hintmask 10001110
          -62 callgsubr
        </CharString>
        <CharString name="B">
          57 0 118 167 115 -94 -21 277 118 hstemhm
          222 111 114 142 -94 141 hintmask 10111100
          222 680 rmoveto
          -30 callsubr
          256 hlineto
          181 87 107 125 50 -10 35 -55 33 hvcurveto
          hintmask 10111010
          69 42 43 49 92 vvcurveto
          101 -67 46 -111 vhcurveto
          -76 -395 rmoveto
          hintmask 11011100
          45 20 -17 -39 -65 -39 -46 -60 hvcurveto
          -118 hlineto
          39 167 rlineto
          167 277 rmoveto
          hintmask 11011010
          41 18 -20 -37 -63 -43 -42 -54 hvcurveto
          -103 hlineto
          38 162 rlineto
          endchar
        </CharString>
        <CharString name="C">
          -22 -49 callsubr
          hstem
          99 142 -98 callgsubr
          endchar
        </CharString>
        <CharString name="CR">
          -293 endchar
        </CharString>
        <CharString name="Cacute">
          -22 -49 callsubr
          hstem
          99 142 -98 callgsubr
          -89 751 -68 callsubr
        </CharString>
        <CharString name="Ccaron">
          -22 -49 callsubr
          84 151 hstem
          99 142 224 29 -98 callgsubr
          205 913 -3 callsubr
        </CharString>
        <CharString name="Ccedilla">
          -22 0 callgsubr
          21 120 -103 -20 587 120 hstemhm
          99 142 6 52 -21 105 hintmask 11011110
          484 121 rmoveto
          hintmask 11101110
          0 -84 -13 -78 -57 -24 32 55 190 74 187 129 82 62 -12 0 vhcurveto
          32 102 rlineto
          0 -89 30 -82 -259 -91 -296 -211 -107 47 -67 98 -18 vhcurveto
          -19 -87 rlineto
          22 hlineto
          hintmask 11011101
          -95 callgsubr
          -41 callgsubr
          hintmask 11101110
          6 21 rlineto
          10 hlineto
          76 93 26 0 hvcurveto
          endchar
        </CharString>
        <CharString name="Ccircumflex">
          -22 -49 callsubr
          hstem
          99 142 -98 callgsubr
          -181 765 -93 callsubr
          -80 hlineto
          endchar
        </CharString>
        <CharString name="Cdotaccent">
          -22 -6 callsubr
          132 -21 353 120 26 -20 73 138 hstem
          99 142 164 116 -98 callgsubr
          -68 757 -42 callsubr
          endchar
        </CharString>
        <CharString name="D">
          89 20 callgsubr
          440 23 callgsubr
          65 166 287 142 vstem
          309 hmoveto
          -34 callsubr
          -157 -680 -26 callsubr
          101 440 8 callsubr
        </CharString>
        <CharString name="DLE">
          -516 endchar
        </CharString>
        <CharString name="Dcaron">
          89 20 callgsubr
          440 120 96 151 hstem
          65 166 203 29 55 142 vstem
          65 hmoveto
          157 -39 callgsubr
          214 hlineto
          118 106 -44 -163 -226 -107 -247 -244 hvcurveto
          209 473 rmoveto
          68 -42 19 -68 vhcurveto
          -76 hlineto
          -101 -440 rlineto
          90 hlineto
          144 53 229 124 hvcurveto
          129 454 -3 callsubr
        </CharString>
        <CharString name="Dcroat">
          97 20 callgsubr
          155 136 149 23 callgsubr
          73 166 287 142 vstem
          317 hmoveto
          -34 callsubr
          -62 -269 rlineto
          -57 hlineto
          -29 -136 rlineto
          54 hlineto
          -63 -275 -26 callsubr
          35 155 rlineto
          110 hlineto
          30 136 rlineto
          -108 hlineto
          34 149 8 callsubr
        </CharString>
        <CharString name="Delta">
          44 0 114 434 112 hstem
          82 104 rmoveto
          -104 472 102 vlineto
          -123 558 rlineto
          -225 hlineto
          126 -112 rmoveto
          89 -434 rlineto
          -206 hlineto
          90 434 rlineto
          endchar
        </CharString>
        <CharString name="E">
          -19 0 -33 callgsubr
          hstem
          65 166 vstem
          65 hmoveto
          400 hlineto
          -104 callsubr
        </CharString>
        <CharString name="Eacute">
          -19 0 -25 callsubr
          365 -20 97 23 callgsubr
          339 10 vstem
          349 -78 callgsubr
          -274 -871 rmoveto
          400 hlineto
          -104 callsubr
        </CharString>
        <CharString name="Ebreve">
          -19 0 -33 callgsubr
          103 105 hstemhm
          65 166 66 122 88 122 hintmask 10111111
          297 927 rmoveto
          -94 callgsubr
          -354 -927 rmoveto
          400 hlineto
          hintmask 01111111
          -104 callsubr
        </CharString>
        <CharString name="Ecaron">
          -19 0 -33 callgsubr
          114 151 hstemhm
          65 166 195 29 hintmask 10111110
          639 945 -88 callsubr
          -414 -794 rmoveto
          400 hlineto
          hintmask 01111110
          -104 callsubr
        </CharString>
        <CharString name="Ecircumflex">
          -19 120 0 662 -20 20 55 97 0 hstem
          260 230 vstem
          260 782 -93 callsubr
          -80 hlineto
          -371 -934 rmoveto
          400 hlineto
          -104 callsubr
        </CharString>
        <CharString name="Edieresis">
          -19 20 callgsubr
          668 -20 hstemhm
          287 31 vstemhm
          287 -65 callgsubr
          hintmask 11100000
          -17 callgsubr
          -452 -923 rmoveto
          400 hlineto
          -104 callsubr
        </CharString>
        <CharString name="Edotaccent">
          -19 0 -20 20 120 120 -21 61 -25 callsubr
          38 -20 73 138 hstemhm
          65 166 137 116 hintmask 1011111110000000
          368 771 -42 callsubr
          -335 -909 rmoveto
          400 hlineto
          hintmask 0111111110000000
          -104 callsubr
        </CharString>
        <CharString name="Egrave">
          -19 0 -25 callsubr
          354 77 28 -20 hstem
          336 222 vstem
          336 -72 callgsubr
          -493 -859 rmoveto
          400 hlineto
          -104 callsubr
        </CharString>
        <CharString name="Emacron">
          -19 0 -25 callsubr
          406 -20 20 109 hstem
          277 25 vstem
          277 806 -22 callgsubr
          -237 -915 rmoveto
          400 hlineto
          -104 callsubr
        </CharString>
        <CharString name="Eng">
          135 711 539 rmoveto
          -1 hlineto
          33 141 rlineto
          -133 hlineto
          -92 -403 -30 -130 rlineto
          -11 hlineto
          -36 533 rlineto
          -219 hlineto
          -30 callsubr
          130 hlineto
          127 543 rlineto
          12 hlineto
          44 -543 rlineto
          76 hlineto
          -1 -6 -18 -78 -14 -4 -53 -2 rlinecurve
          -23 -120 rlineto
          171 27 22 182 42 hvcurveto
          endchar
        </CharString>
        <CharString name="Eogonek">
          -19 -214 118 96 -33 callgsubr
          hstemhm
          65 166 12 144 hintmask 11011110
          65 hmoveto
          268 hlineto
          -38 -31 -52 -55 -51 -67 callgsubr
          22 41 42 25 18 vhcurveto
          12 hlineto
          hintmask 10111110
          -104 callsubr
        </CharString>
        <CharString name="Eth">
          97 275 198 -62 269 hstemhm
          73 312 -302 585 hintmask 10100000
          hintmask 10010000
          317 hmoveto
          hintmask 01010000
          -34 callsubr
          -62 -269 rlineto
          hintmask 10010000
          -56 hlineto
          hintmask 10100000
          -29 -136 rlineto
          53 hlineto
          -63 -275 -26 callsubr
          35 155 rlineto
          hintmask 01010000
          111 hlineto
          30 136 rlineto
          hintmask 10100000
          -109 hlineto
          34 149 8 callsubr
        </CharString>
        <CharString name="Euro">
          44 -12 117 78 105 69 105 93 117 hstem
          149 138 vstem
          523 117 rmoveto
          0 -82 -12 -75 -54 -24 28 50 -1 vhcurveto
          205 hlineto
          24 105 rlineto
          -222 hlineto
          3 24 5 23 6 22 rrcurveto
          223 hlineto
          24 105 rlineto
          -206 hlineto
          56 33 46 37 56 hhcurveto
          80 60 -11 0 hvcurveto
          31 99 rlineto
          0 -86 29 -80 -143 -90 -93 -117 -52 vhcurveto
          -49 hlineto
          -25 -105 rlineto
          40 hlineto
          -6 -23 -4 -23 -4 -23 rrcurveto
          -41 hlineto
          -24 -105 rlineto
          58 -3 hlineto
          -123 64 -69 135 74 90 26 0 vhcurveto
          endchar
        </CharString>
        <CharString name="F">
          -39 0 0 21 -21 235 120 205 120 0 -20 hstem
          65 138 vstem
          65 hmoveto
          -56 callgsubr
          54 235 rlineto
          209 hlineto
          29 120 rlineto
          -210 hlineto
          47 205 rlineto
          254 hlineto
          28 120 rlineto
          -392 hlineto
          endchar
        </CharString>
        <CharString name="G">
          -34 callgsubr
          hstemhm
          -187 36 253 142 198 164 -59 138 hintmask 0111111010000000
          378 264 rmoveto
          hintmask 1001111100000000
          64 hlineto
          -50 callsubr
          -90 callsubr
          endchar
        </CharString>
        <CharString name="Gbreve">
          -34 callgsubr
          68 122 hstemhm
          -187 36 253 142 94 131 -27 164 -59 138 -111 131 hintmask 0111111110100000
          338 926 rmoveto
          -2 -15 -1 -15 1 -14 rrcurveto
          -69 4 42 -53 95 hhcurveto
          hintmask 0111111110010000
          122 74 70 96 32 hvcurveto
          -131 hlineto
          -30 -11 -20 -14 -32 hhcurveto
          -26 -14 11 20 -2 hvcurveto
          4 -1 4 1 5 vhcurveto
          -91 -662 rmoveto
          hintmask 1001111101000000
          64 hlineto
          -50 callsubr
          -90 callsubr
          endchar
        </CharString>
        <CharString name="Gcircumflex">
          52 108 647 -626 -21 156 666 -378 203 hstemhm
          -187 36 558 247 -214 14 93 138 hintmask 01011011
          300 755 17 callgsubr
          hintmask 10001100
          132 hlineto
          hintmask 01101011
          33 callgsubr
          hintmask 01011011
          hintmask 01101011
          -90 -666 rmoveto
          64 hlineto
          hintmask 01101100
          -50 callsubr
          vhcurveto
          hintmask 01011011
          -90 callsubr
          endchar
        </CharString>
        <CharString name="Gcommaaccent">
          -34 callgsubr
          hstemhm
          -187 36 253 142 -11 123 86 164 -59 138 hintmask 0111111001000000
          378 264 rmoveto
          hintmask 1001111010000000
          64 hlineto
          -50 callsubr
          -90 callsubr
          hintmask 0111110101000000
          -172 -450 -80 callsubr
          endchar
        </CharString>
        <CharString name="Gdotaccent">
          52 201 63 -62 530 -180 317 -296 -21 317 -20 hstemhm
          -187 36 529 76 11 80 2 138 hintmask 0100111110000000
          419 732 rmoveto
          126 hlineto
          hintmask 1010011110000000
          32 137 rlineto
          -126 hlineto
          hintmask 0100111110000000
          hintmask 1001111110000000
          -73 -605 rmoveto
          64 hlineto
          -50 callsubr
          154 58 217 152 88 99 -20 0 vhcurveto
          32 100 rlineto
          0 -98 40 -110 vhcurveto
          hintmask 0100111110000000
          -250 -113 -236 -254 -143 78 -71 147 126 68 26 0 hvcurveto
          85 364 rlineto
          -201 hlineto
          endchar
        </CharString>
        <CharString name="H">
          -68 callgsubr
          endchar
        </CharString>
        <CharString name="Hbar">
          112 21 -21 278 129 77 116 80 -20 hstem
          226 132 226 132 vstem
          115 481 rmoveto
          65 hlineto
          -111 -481 17 callsubr
          64 278 rlineto
          226 hlineto
          -64 -278 17 callsubr
          111 481 rlineto
          61 hlineto
          30 119 rlineto
          -64 hlineto
          19 80 rlineto
          -132 hlineto
          -19 -80 rlineto
          -226 hlineto
          19 80 rlineto
          -132 hlineto
          -19 -80 rlineto
          -64 hlineto
          -28 -116 rlineto
          180 -77 rmoveto
          17 74 rlineto
          226 hlineto
          -17 -74 rlineto
          endchar
        </CharString>
        <CharString name="Hcircumflex">
          -68 callgsubr
          -175 491 -93 callsubr
          -80 hlineto
          endchar
        </CharString>
        <CharString name="I">
          -248 21 -21 hstem
          65 12 callsubr
          vstem
          65 30 callgsubr
          endchar
        </CharString>
        <CharString name="Iacute">
          -248 786 -21 hstemhm
          219 264 -254 264 hintmask 10100000
          229 765 -35 callgsubr
          77 rlineto
          hintmask 11000000
          -93 callgsubr
          hintmask 10100000
          -154 -871 rmoveto
          -81 callsubr
          endchar
        </CharString>
        <CharString name="Ibreve">
          -248 21 -21 783 105 hstemhm
          65 138 -21 122 -82 138 32 122 hintmask 11010100
          182 927 rmoveto
          -94 callgsubr
          hintmask 11101100
          -239 -927 rmoveto
          -81 callsubr
          endchar
        </CharString>
        <CharString name="Icircumflex">
          -248 803 -21 hstem
          132 142 62 26 vstem
          132 782 -93 callsubr
          -80 hlineto
          -243 -934 rmoveto
          -81 callsubr
          endchar
        </CharString>
        <CharString name="Idieresis">
          -248 821 -21 hstemhm
          158 110 -79 111 hintmask 11000000
          158 800 rmoveto
          110 hlineto
          hintmask 10100000
          32 -8 callsubr
          hintmask 11000000
          20 callsubr
          -323 -935 rmoveto
          -81 callsubr
          endchar
        </CharString>
        <CharString name="Idotaccent">
          -248 21 -21 240 -21 499 -20 73 138 hstemhm
          65 12 callsubr
          -109 116 hintmask 11111010
          251 771 -42 callsubr
          -218 -909 rmoveto
          -56 callgsubr
          hintmask 11111100
          44 callgsubr
        </CharString>
        <CharString name="Igrave">
          -248 880 -21 hstem
          144 66 161 61 vstem
          210 -72 callgsubr
          -367 -859 rmoveto
          -81 callsubr
          endchar
        </CharString>
        <CharString name="Imacron">
          -248 838 -21 hstemhm
          150 327 -302 327 hintmask 11000000
          150 817 rmoveto
          327 hlineto
          hintmask 10100000
          25 109 rlineto
          -327 hlineto
          hintmask 11000000
          -110 -926 rmoveto
          -81 callsubr
          endchar
        </CharString>
        <CharString name="Iogonek">
          -248 11 callsubr
          26 -21 hstemhm
          -19 144 -60 12 callsubr
          hintmask 10101100
          65 hmoveto
          6 hlineto
          hintmask 11010100
          -38 -31 -52 -55 -51 -67 callgsubr
          vhcurveto
          hintmask 10101100
          24 45 44 33 14 vhcurveto
          44 callgsubr
        </CharString>
        <CharString name="Itilde">
          -248 947 -21 hstem
          153 116 147 87 vstem
          503 926 -88 callgsubr
          -440 -832 rmoveto
          -81 callsubr
          endchar
        </CharString>
        <CharString name="J">
          -59 callgsubr
          endchar
        </CharString>
        <CharString name="Jcircumflex">
          -59 callgsubr
          hintmask 11010000
          -108 644 -93 callsubr
          -80 hlineto
          endchar
        </CharString>
        <CharString name="K">
          24 21 -21 266 23 callgsubr
          222 138 24 145 3 151 vstem
          384 hmoveto
          -4 callgsubr
          -11 callsubr
        </CharString>
        <CharString name="Kcommaaccent">
          24 21 -21 266 120 hstemhm
          215 123 -116 138 24 145 3 151 hintmask 11101100
          215 -72 -80 callsubr
          266 309 rmoveto
          -4 callgsubr
          rlineto
          hintmask 11011100
          -11 callsubr
        </CharString>
        <CharString name="L">
          -94 20 callgsubr
          581 -21 hstem
          222 138 vstem
          419 hmoveto
          -46 callgsubr
        </CharString>
        <CharString name="Lacute">
          -94 765 77 50 -21 hstem
          290 129 vstem
          300 -78 callgsubr
          129 -871 rmoveto
          -46 callgsubr
        </CharString>
        <CharString name="Lcaron">
          -52 20 callgsubr
          330 -21 251 -20 41 -21 hstem
          222 138 108 122 vstem
          590 -36 callsubr
          -111 -429 rmoveto
          -46 callgsubr
        </CharString>
        <CharString name="Lcommaaccent">
          -94 20 callgsubr
          581 -21 hstemhm
          165 123 -66 138 hintmask 11100000
          165 -72 -80 callsubr
          351 309 rmoveto
          11 callgsubr
          hintmask 11010000
          129 560 -58 callgsubr
          endchar
        </CharString>
        <CharString name="Lslash">
          -93 20 callgsubr
          -120 136 565 -21 hstem
          224 138 vstem
          421 hmoveto
          11 callgsubr
          43 189 169 105 -41 92 -96 -60 54 234 -60 callsubr
          -77 -334 -101 -62 41 -93 28 17 -48 -208 rlineto
          endchar
        </CharString>
        <CharString name="M">
          273 21 -21 560 -20 20 120 hstemhm
          65 138 134 130 119 138 hintmask 11011100
          65 hmoveto
          -56 callgsubr
          128 560 rlineto
          5 hlineto
          1 -530 rlineto
          130 hlineto
          243 530 rlineto
          6 hlineto
          -130 -560 6 callsubr
          hintmask 10111100
          157 -39 callgsubr
          -218 hlineto
          -226 -495 -1 495 rlineto
          -214 hlineto
          endchar
        </CharString>
        <CharString name="N">
          5 callsubr
          hstem
          65 130 415 133 vstem
          65 hmoveto
          -86 callgsubr
        </CharString>
        <CharString name="Nacute">
          135 0 -20 563 -20 242 0 hstem
          322 12 55 264 vstem
          389 -78 callgsubr
          -314 -871 rmoveto
          -86 callgsubr
        </CharString>
        <CharString name="Ncaron">
          5 callsubr
          115 151 hstem
          65 130 282 29 104 133 vstem
          690 926 -88 callsubr
          -465 -775 rmoveto
          -86 callgsubr
        </CharString>
        <CharString name="Ncommaaccent">
          5 callsubr
          hstem
          65 130 85 123 207 133 vstem
          280 -72 -80 callsubr
          -118 309 rmoveto
          -86 callgsubr
        </CharString>
        <CharString name="Ntilde">
          135 0 0 147 -20 416 0 137 -20 hstemhm
          65 130 415 133 -126 131 hintmask 11111010
          675 935 -88 callgsubr
          -612 -841 rmoveto
          130 hlineto
          127 543 rlineto
          12 hlineto
          44 -543 rlineto
          208 hlineto
          hintmask 11111100
          157 -39 callgsubr
          -133 hlineto
          -121 -533 rlineto
          -12 hlineto
          -36 533 rlineto
          -219 hlineto
          endchar
        </CharString>
        <CharString name="O">
          99 -49 callsubr
          hstem
          101 142 284 142 vstem
          339 108 rmoveto
          -72 -24 29 73 100 37 162 71 70 hvcurveto
          -73 callsubr
        </CharString>
        <CharString name="OE">
          315 796 hmoveto
          30 131 rlineto
          -275 hlineto
          35 148 219 -2 29 125 rlineto
          -220 hlineto
          39 157 rlineto
          276 hlineto
          30 131 rlineto
          -404 hlineto
          6 -33 -42 6 -33 hhcurveto
          -162 -109 -107 -250 -59 hvcurveto
          -18 -77 -7 -64 3 -53 rrcurveto
          -106 7 57 -57 120 hhcurveto
          34 45 6 6 37 hvcurveto
          -67 120 rmoveto
          -68 -28 28 67 34 7 42 13 54 hvcurveto
          169 40 53 56 88 hhcurveto
          32 44 -4 -2 17 hvcurveto
          -105 -438 rlineto
          -3 -33 -39 -3 -21 hhcurveto
          endchar
        </CharString>
        <CharString name="Oacute">
          99 -49 callsubr
          hstem
          101 142 284 142 vstem
          339 108 rmoveto
          -72 -24 29 73 100 37 162 71 70 hvcurveto
          22 22 29 8 30 hhcurveto
          -105 callgsubr
          73 777 -68 callsubr
        </CharString>
        <CharString name="Obreve">
          99 -49 callsubr
          91 105 hstemhm
          101 142 100 122 62 142 -116 122 hintmask 11111010
          343 927 rmoveto
          -94 callgsubr
          -126 -819 rmoveto
          8 callgsubr
          hintmask 11111100
          -105 callgsubr
          endchar
        </CharString>
        <CharString name="Ocircumflex">
          99 -49 callsubr
          hstem
          101 142 284 142 vstem
          339 108 rmoveto
          -72 -24 29 73 100 37 162 71 70 hvcurveto
          22 22 29 8 30 hhcurveto
          -105 callgsubr
          -6 791 -93 callsubr
          -80 hlineto
          endchar
        </CharString>
        <CharString name="Odieresis">
          99 542 374 -135 135 hstemhm
          243 282 -84 86 hintmask 01010000
          321 781 -63 callgsubr
          hintmask 01100000
          173 -135 -63 callgsubr
          -217 -808 rmoveto
          -72 -24 29 73 hvcurveto
          hintmask 10010000
          -79 callsubr
        </CharString>
        <CharString name="Ograve">
          99 108 842 -378 287 hstemhm
          339 84 82 52 hintmask 01110000
          hintmask 10110000
          396 -72 callgsubr
          hintmask 01110000
          -279 -751 rmoveto
          -72 -24 29 73 100 37 162 71 70 hvcurveto
          hintmask 10110000
          22 22 29 8 30 hhcurveto
          71 24 -29 -73 -114 -38 -148 -66 -66 hvcurveto
          hintmask 01110000
          -103 callgsubr
          endchar
        </CharString>
        <CharString name="Ohungarumlaut">
          99 542 238 -40 40 hstemhm
          243 176 108 217 hintmask 01110000
          623 740 -31 callsubr
          -111 -198 rlineto
          -105 -39 -31 callsubr
          -112 -199 rlineto
          20 -672 rmoveto
          -72 -24 29 73 hvcurveto
          hintmask 10110000
          -79 callsubr
        </CharString>
        <CharString name="Omacron">
          99 -49 callsubr
          hstem
          101 142 284 142 vstem
          339 108 rmoveto
          -72 -24 29 73 100 37 162 71 70 hvcurveto
          22 22 29 8 30 hhcurveto
          -105 callgsubr
          2 818 -22 callgsubr
          endchar
        </CharString>
        <CharString name="Omega">
          44 -9 114 447 23 callgsubr
          103 142 196 142 vstem
          115 105 rmoveto
          -114 208 99 vlineto
          0 -78 135 125 vvcurveto
          146 13 56 85 85 13 -56 -146 -125 -78 -135 0 vhcurveto
          -99 208 114 -80 vlineto
          0 92 108 172 vvcurveto
          199 -67 88 -173 -173 -67 -88 -199 -172 92 -108 0 vhcurveto
          endchar
        </CharString>
        <CharString name="Oslash">
          99 -121 40 69 120 255 411 -202 120 hstemhm
          101 142 86 325 -231 19 85 142 hintmask 11101011
          119 -40 callsubr
          rlineto
          hintmask 11011100
          -39 callsubr
          286 189 rmoveto
          -24 -19 3 7 -14 hvcurveto
          hintmask 11011011
          -56 callsubr
          hintmask 11101011
          -135 -199 rlineto
          endchar
        </CharString>
        <CharString name="Oslashacute">
          101 108 763 -116 50 hstemhm
          54 66 232 300 hintmask 01110000
          120 -40 callsubr
          -39 callsubr
          334 836 -35 callgsubr
          77 -11 130 rlineto
          hintmask 10110000
          -264 -91 rlineto
          hintmask 01110000
          hintmask 10110000
          -37 -763 rmoveto
          -24 -19 3 7 -14 hvcurveto
          -56 callsubr
          -135 -199 rlineto
          endchar
        </CharString>
        <CharString name="Otilde">
          99 -49 callsubr
          hstemhm
          101 142 -141 136 289 142 -137 136 hintmask 11010100
          678 935 -88 callgsubr
          -341 -733 rmoveto
          hintmask 11100100
          8 callgsubr
          hintmask 11011000
          -84 callsubr
          -102 callgsubr
          hintmask 11100100
          -87 callsubr
          endchar
        </CharString>
        <CharString name="P">
          31 21 -21 196 120 244 23 callgsubr
          65 138 283 142 vstem
          333 196 rmoveto
          179 116 97 195 134 -62 58 -148 hvcurveto
          -196 16 callsubr
          45 196 rlineto
          28 120 rmoveto
          56 244 rlineto
          76 hlineto
          57 21 -24 -50 -109 -51 -61 -84 hvcurveto
          endchar
        </CharString>
        <CharString name="Q">
          99 -154 726 -565 101 hstemhm
          339 84 82 14 hintmask 10110000
          315 -12 rmoveto
          10 10 1 1 10 hvcurveto
          43 -144 131 43 -48 135 12 6 11 8 11 8 rlinecurve
          114 89 50 177 172 vvcurveto
          147 -86 61 -135 -75 -65 -23 -44 -51 vhcurveto
          -87 callsubr
          hintmask 01110000
          24 120 -46 callsubr
          endchar
        </CharString>
        <CharString name="R">
          -22 callsubr
          hstemhm
          65 138 145 128 -83 138 -45 142 hintmask 11111010
          hintmask 11110100
          393 hmoveto
          hintmask 11111010
          -38 callgsubr
          -18 callsubr
        </CharString>
        <CharString name="Racute">
          -22 callsubr
          hstemhm
          65 138 145 128 -83 138 -45 142 hintmask 11111010
          348 216 -26 callgsubr
          hintmask 11110100
          55 -235 -60 callsubr
          hintmask 11111010
          -9 callgsubr
          -155 285 -68 callsubr
        </CharString>
        <CharString name="Rcaron">
          -22 callsubr
          96 151 hstemhm
          65 138 145 128 -83 138 -117 29 43 142 hintmask 1111100110000000
          627 927 -88 callsubr
          hintmask 1111110010000000
          -119 -560 -26 callgsubr
          hintmask 1111101000000000
          55 -235 -60 callsubr
          hintmask 1111110010000000
          -9 callgsubr
          endchar
        </CharString>
        <CharString name="Rcommaaccent">
          -22 callsubr
          hstemhm
          65 138 26 123 -4 128 -83 138 -45 142 hintmask 11111001
          132 -37 callsubr
          164 72 rmoveto
          hintmask 11110101
          -38 callgsubr
          hintmask 11111010
          -18 callsubr
        </CharString>
        <CharString name="S">
          -21 -6 callsubr
          466 118 hstem
          146 140 89 140 vstem
          586 654 rmoveto
          -99 callgsubr
          endchar
        </CharString>
        <CharString name="Sacute">
          -21 -6 callsubr
          466 118 hstem
          146 140 89 140 vstem
          586 654 rmoveto
          -99 callgsubr
          -222 209 -68 callsubr
        </CharString>
        <CharString name="Scaron">
          -21 -6 callsubr
          -120 130 454 130 -128 118 84 151 hstemhm
          146 133 -133 140 89 140 -91 29 hintmask 0110110010000000
          637 927 -88 callsubr
          109 -122 rmoveto
          hintmask 1001101100000000
          -99 callgsubr
          endchar
        </CharString>
        <CharString name="Scedilla">
          -21 0 callgsubr
          21 120 -120 130 -113 -20 587 130 -128 118 hstemhm
          146 133 -133 140 -67 55 -24 105 20 140 -133 133 hintmask 1100110100001000
          586 654 rmoveto
          hintmask 1100101010001000
          0 -100 38 -109 -143 -88 -97 -126 vhcurveto
          hintmask 1100110001010000
          13 callgsubr
          vhcurveto
          88 -40 13 -12 -38 vvcurveto
          hintmask 1110010001001000
          -75 -44 -24 -75 -70 -113 20 0 vhcurveto
          -23 -99 rlineto
          0 76 -30 89 -9 vhcurveto
          -18 -84 rlineto
          22 hlineto
          hintmask 1100110000101000
          -95 callgsubr
          -41 callgsubr
          hintmask 1101010010001000
          6 21 rlineto
          149 3 100 80 152 vvcurveto
          89 -24 37 -112 50 vhcurveto
          -82 37 -11 12 37 vvcurveto
          hintmask 1100101100001000
          53 35 36 60 70 110 -18 0 vhcurveto
          endchar
        </CharString>
        <CharString name="Scircumflex">
          -21 -6 callsubr
          466 118 hstem
          146 140 89 140 vstem
          586 654 rmoveto
          -99 callgsubr
          -317 223 -93 callsubr
          -80 hlineto
          endchar
        </CharString>
        <CharString name="Scommaaccent">
          -21 -6 callsubr
          466 118 hstemhm
          146 140 -106 123 72 140 hintmask 11011000
          180 -72 -80 callsubr
          503 963 rmoveto
          0 -100 38 -109 vhcurveto
          hintmask 11101000
          -143 -88 -97 -126 13 callgsubr
          hvcurveto
          88 -40 13 -12 -38 vvcurveto
          -75 -44 -24 -75 -70 -113 20 0 vhcurveto
          -23 -99 rlineto
          0 102 -41 106 154 103 81 154 89 -24 37 -112 50 vhcurveto
          -82 37 -11 12 37 vvcurveto
          53 35 36 60 70 110 -18 0 vhcurveto
          endchar
        </CharString>
        <CharString name="T">
          -60 21 -21 560 23 callgsubr
          158 138 vstem
          138 560 rmoveto
          149 hlineto
          -55 callsubr
        </CharString>
        <CharString name="Tbar">
          -55 0 248 140 -21 hstem
          124 387 vstem
          141 560 rmoveto
          149 hlineto
          -45 -193 rlineto
          15 callgsubr
          -27 -119 rlineto
          121 hlineto
          -57 -248 6 callsubr
          57 248 rlineto
          126 hlineto
          29 119 rlineto
          -128 hlineto
          45 193 rlineto
          151 hlineto
          28 120 rlineto
          -438 hlineto
          endchar
        </CharString>
        <CharString name="Tcaron">
          -60 21 -21 560 120 96 151 hstem
          158 138 86 29 vstem
          595 927 -88 callsubr
          -297 -216 rmoveto
          149 hlineto
          -55 callsubr
        </CharString>
        <CharString name="Tcedilla">
          -60 0 callgsubr
          38 -20 36 -21 560 120 hstemhm
          158 138 -91 50 -19 105 hintmask 11101001
          341 -124 rmoveto
          -41 callgsubr
          hintmask 11011010
          9 33 rlineto
          hintmask 11011100
          41 hlineto
          129 560 rlineto
          151 hlineto
          28 120 rlineto
          -438 hlineto
          -28 -120 rlineto
          149 hlineto
          -129 -560 rlineto
          46 hlineto
          -21 -94 rlineto
          hintmask 11101010
          22 hlineto
          hintmask 11101001
          -95 callgsubr
          endchar
        </CharString>
        <CharString name="Tcommaaccent">
          -60 21 -21 560 120 hstemhm
          155 123 -120 138 hintmask 11100000
          155 -72 -80 callsubr
          80 869 rmoveto
          149 hlineto
          hintmask 11010000
          -55 callsubr
        </CharString>
        <CharString name="Thorn">
          22 21 -21 99 137 223 134 97 -20 hstem
          226 131 110 132 vstem
          343 236 rmoveto
          -95 hlineto
          53 223 96 -2 69 -2 15 -51 -14 -56 rlinecurve
          -71 -18 -41 -41 -65 hhcurveto
          -31 -137 rmoveto
          146 -2 107 96 34 155 rrcurveto
          135 29 -64 110 -136 hhcurveto
          -96 hlineto
          25 97 rlineto
          -131 hlineto
          -163 -690 rlineto
          130 hlineto
          23 100 rlineto
          endchar
        </CharString>
        <CharString name="U">
          -89 callgsubr
          endchar
        </CharString>
        <CharString name="Uacute">
          -89 callgsubr
          112 534 -68 callsubr
        </CharString>
        <CharString name="Ubreve">
          79 -6 callsubr
          572 -20 123 105 hstem
          323 122 88 122 vstem
          323 927 rmoveto
          -94 callgsubr
          -92 -247 -107 callsubr
          endchar
        </CharString>
        <CharString name="Ucircumflex">
          -89 callgsubr
          46 548 -93 callsubr
          -80 hlineto
          endchar
        </CharString>
        <CharString name="Udieresis">
          79 680 101 0 -20 hstem
          305 781 -63 callgsubr
          173 -135 -63 callgsubr
          -187 -236 -107 callsubr
          endchar
        </CharString>
        <CharString name="Ugrave">
          79 231 449 179 -20 hstem
          389 -72 callgsubr
          -258 -179 -107 callsubr
          endchar
        </CharString>
        <CharString name="Uhungarumlaut">
          79 680 61 -1 -20 hstemhm
          hintmask 01000000
          600 740 -31 callsubr
          -111 -198 rlineto
          hintmask 10000000
          -105 -39 -31 callsubr
          -112 -199 rlineto
          57 -100 -107 callsubr
          endchar
        </CharString>
        <CharString name="Umacron">
          -89 callgsubr
          56 575 -22 callgsubr
          endchar
        </CharString>
        <CharString name="Uogonek">
          82 -214 118 84 120 -93 -20 685 -20 hstemhm
          176 144 hintmask 10111000
          355 680 25 callsubr
          -99 -427 rlineto
          -7 -32 -6 -43 -36 vvcurveto
          -90 59 -47 92 -13 vhcurveto
          -36 -31 -44 -51 -47 -67 callgsubr
          19 32 36 25 20 vhcurveto
          117 19 64 74 33 145 104 449 rcurveline
          -66 callgsubr
          -104 -449 rlineto
          hintmask 11011000
          -84 -19 -23 -39 -87 hhcurveto
          -50 -32 10 47 24 4 21 5 21 hvcurveto
          endchar
        </CharString>
        <CharString name="Uring">
          79 835 -20 20 0 hstem
          619 835 -60 callgsubr
          -90 -155 -107 callsubr
          endchar
        </CharString>
        <CharString name="Utilde">
          79 680 103 153 -20 hstem
          650 936 -88 callgsubr
          -299 -162 -107 callsubr
          endchar
        </CharString>
        <CharString name="V">
          39 21 -21 120 -20 580 -20 hstemhm
          170 138 -24 33 244 138 hintmask 11110100
          561 680 rmoveto
          -244 -560 rlineto
          hintmask 11101100
          -33 hlineto
          24 560 -60 callsubr
          -14 7 callsubr
          235 hlineto
          308 -39 callgsubr
          endchar
        </CharString>
        <CharString name="W">
          41 callsubr
          hstem
          30 callsubr
          vstem
          174 680 -62 callsubr
          291 680 rlineto
          -81 callgsubr
        </CharString>
        <CharString name="Wacute">
          41 callsubr
          30 -20 hstemhm
          30 callsubr
          hintmask 11101110
          502 -78 callgsubr
          -318 -191 -62 callsubr
          291 680 -60 callsubr
          -224 -553 rlineto
          -14 hlineto
          hintmask 11011110
          33 543 rlineto
          -152 hlineto
          -226 -543 rlineto
          -14 hlineto
          hintmask 11101110
          42 553 rlineto
          endchar
        </CharString>
        <CharString name="Wcircumflex">
          349 0 -20 820 -21 hstemhm
          174 430 -176 439 -353 33 hintmask 11010000
          428 -10 callsubr
          hintmask 11010000
          hintmask 11100000
          -430 -251 rmoveto
          -31 7 callsubr
          206 hlineto
          hintmask 11001000
          198 494 -33 -494 rlineto
          200 hlineto
          291 -39 callgsubr
          hintmask 11010000
          -81 callgsubr
        </CharString>
        <CharString name="Wdieresis">
          349 680 -20 149 -21 hstemhm
          349 198 -98 556 -326 111 hintmask 11010000
          449 -65 callgsubr
          hintmask 11101000
          -17 callgsubr
          -505 -243 -62 callsubr
          hintmask 11010000
          291 680 rlineto
          -81 callgsubr
        </CharString>
        <CharString name="Wgrave">
          349 0 -20 795 -21 105 -20 hstem
          349 198 115 77 128 138 vstem
          517 -72 callgsubr
          -565 -179 -62 callsubr
          291 680 rlineto
          -81 callgsubr
        </CharString>
        <CharString name="X">
          4 1 145 21 146 57 145 vstem
          313 680 rmoveto
          -146 hlineto
          90 -337 -256 -343 rlineto
          145 hlineto
          169 243 55 -243 rlineto
          145 hlineto
          -94 342 250 338 rlineto
          -145 hlineto
          -164 -239 rlineto
          endchar
        </CharString>
        <CharString name="Y">
          -12 21 -21 hstemhm
          158 140 -113 128 202 146 hintmask 11010000
          661 680 1 callsubr
          hintmask 10110000
          -61 callgsubr
        </CharString>
        <CharString name="Yacute">
          -12 21 -21 249 49 392 -20 hstemhm
          158 140 -113 128 -60 125 137 146 hintmask 11110010
          345 -78 callgsubr
          326 -191 -20 callsubr
          hintmask 11100110
          95 -386 rlineto
          hintmask 11101010
          -61 callgsubr
        </CharString>
        <CharString name="Ycircumflex">
          -12 952 -21 hstemhm
          251 142 34 234 -180 122 hintmask 11010000
          251 -10 callsubr
          234 -251 rmoveto
          -146 hlineto
          -59 callsubr
        </CharString>
        <CharString name="Ydieresis">
          -12 944 -21 hstemhm
          273 110 -79 168 31 111 hintmask 11010000
          273 788 rmoveto
          110 -29 callsubr
          hintmask 10110000
          3 callgsubr
          hintmask 11010000
          hintmask 10110000
          20 callsubr
          158 -243 rmoveto
          -146 hlineto
          -59 callsubr
        </CharString>
        <CharString name="Ygrave">
          -12 436 -21 hstemhm
          298 48 -7 322 -161 61 hintmask 11010000
          hintmask 10100000
          339 -72 callgsubr
          hintmask 11010000
          100 -179 rmoveto
          -146 hlineto
          hintmask 10100000
          -59 callsubr
        </CharString>
        <CharString name="Z">
          -26 20 callgsubr
          440 23 callgsubr
          165 560 -76 callsubr
        </CharString>
        <CharString name="Zacute">
          -26 120 722 -306 24 hstemhm
          hintmask 10000000
          316 -78 callgsubr
          hintmask 01000000
          -141 -311 rmoveto
          258 hlineto
          -5 -24 -351 -399 -31 -137 rlineto
          418 hlineto
          hintmask 10000000
          28 120 rlineto
          -262 hlineto
          6 24 353 397 32 139 rlineto
          -418 hlineto
          endchar
        </CharString>
        <CharString name="Zcaron">
          -26 20 callgsubr
          12 12 405 9 2 120 96 151 hstem
          417 29 vstem
          630 927 -88 callsubr
          -305 -216 -76 callsubr
        </CharString>
        <CharString name="Zdotaccent">
          -26 20 callgsubr
          120 -21 341 120 38 -20 73 138 hstem
          367 116 vstem
          367 771 -42 callsubr
          -234 -349 -76 callsubr
        </CharString>
        <CharString name="a">
          -57 callgsubr
          18 callsubr
          vstem
          221 -12 -107 callgsubr
          endchar
        </CharString>
        <CharString name="aacute">
          -57 callgsubr
          75 -21 18 callsubr
          vstem
          221 -12 -107 callgsubr
          -2 178 -35 callgsubr
          78 -44 callsubr
        </CharString>
        <CharString name="abreve">
          -57 callgsubr
          78 112 18 callsubr
          71 121 105 121 vstem
          221 -12 -107 callgsubr
          -51 348 -96 callsubr
        </CharString>
        <CharString name="acircumflex">
          12 -2 752 -271 96 hstemhm
          221 113 hintmask 01100000
          212 575 17 callgsubr
          132 hlineto
          hintmask 10100000
          33 callgsubr
          hintmask 01100000
          -159 -762 rmoveto
          -29 callgsubr
          hintmask 10100000
          40 callsubr
          -53 callsubr
          hintmask 01100000
          75 323 rlineto
          0 -177 33 -73 -182 -72 -206 -136 -104 39 -78 102 vhcurveto
          117 410 -101 callsubr
          endchar
        </CharString>
        <CharString name="acute">
          43 587 -21 hstem
          254 576 -35 callgsubr
          78 -44 callsubr
        </CharString>
        <CharString name="acute.cap.001">
          12 299 -78 callgsubr
          endchar
        </CharString>
        <CharString name="adieresis">
          12 76 660 -580 445 hstemhm
          477 107 hintmask 01100000
          242 601 rmoveto
          120 hlineto
          hintmask 10100000
          -71 callgsubr
          hintmask 01100000
          173 -135 rmoveto
          120 hlineto
          hintmask 10100000
          -71 callgsubr
          hintmask 01100000
          -256 -748 rmoveto
          hintmask 10100000
          -29 callgsubr
          40 callsubr
          hintmask 01100000
          -53 callsubr
          75 323 rlineto
          0 -177 33 -73 -182 -72 -206 -136 -104 39 -78 102 vhcurveto
          117 410 -101 callsubr
          endchar
        </CharString>
        <CharString name="ae">
          198 -96 callgsubr
          endchar
        </CharString>
        <CharString name="aeacute">
          198 587 -21 hstem
          -96 callgsubr
          -241 282 -35 callgsubr
          78 -44 callsubr
        </CharString>
        <CharString name="agrave">
          -57 callgsubr
          18 callsubr
          vstem
          221 -12 -107 callgsubr
          14 374 -70 callsubr
          endchar
        </CharString>
        <CharString name="amacron">
          -57 callgsubr
          108 116 18 callsubr
          vstem
          221 -12 -107 callgsubr
          -61 229 -61 callsubr
        </CharString>
        <CharString name="ampersand">
          125 -12 114 223 77 -56 -21 255 112 0 -20 hstemhm
          63 139 -18 92 -47 134 109 134 -51 123 hintmask 1010101010000000
          430 692 rmoveto
          hintmask 1100110101000000
          -113 -88 -53 -130 -43 11 -31 19 -33 hvcurveto
          -128 -51 -68 -70 -119 vvcurveto
          -92 39 -82 167 91 74 37 53 55 vhcurveto
          72 -92 93 80 -80 93 37 44 52 102 15 61 rlinecurve
          -123 hlineto
          -6 -33 -27 -65 -16 -23 -76 102 rcurveline
          hintmask 1011001010000000
          139 55 37 46 93 vvcurveto
          105 -62 46 -114 vhcurveto
          -133 -590 rmoveto
          hintmask 1011010110000000
          -60 -35 22 55 56 21 51 84 39 hvcurveto
          118 -167 rlineto
          -27 -26 -58 -29 -44 hhcurveto
          66 403 rmoveto
          44 22 31 43 30 14 -20 -31 -47 -13 -23 -76 -40 vhcurveto
          -11 17 -9 24 45 vvcurveto
          endchar
        </CharString>
        <CharString name="aogonek">
          12 -214 118 84 114 -87 -20 403 114 hstemhm
          80 136 42 144 hintmask 10111100
          452 -93 rmoveto
          -57 callsubr
          23 45 45 25 16 vhcurveto
          10 1 rlineto
          -53 callsubr
          75 323 rlineto
          0 -177 33 -73 -182 -72 -206 -136 vhcurveto
          hintmask 11011100
          -104 39 -78 102 77 64 88 0 vhcurveto
          -4 -15 -7 -50 -2 -10 rrcurveto
          -37 -30 -54 -56 -52 -70 callgsubr
          -101 601 -101 callsubr
          endchar
        </CharString>
        <CharString name="approxequal">
          44 45 120 -76 120 56 120 -76 120 hstemhm
          hintmask 10100000
          546 423 rmoveto
          0 -63 -38 -40 vhcurveto
          hintmask 10010000
          -27 callsubr
          -9 -113 rmoveto
          0 -63 -38 -40 vhcurveto
          hintmask 01100000
          -27 callsubr
          endchar
        </CharString>
        <CharString name="aring">
          -57 callgsubr
          35 79 57 90 18 callsubr
          115 72 58 71 vstem
          221 -12 -107 callgsubr
          -7 258 -91 callsubr
          endchar
        </CharString>
        <CharString name="aringacute">
          -57 callgsubr
          15 79 57 90 26 -21 18 callsubr
          109 72 58 71 vstem
          365 758 -35 callgsubr
          78 -11 130 -264 -91 rlineto
          -133 -887 -107 callgsubr
          -13 238 -91 callsubr
          endchar
        </CharString>
        <CharString name="asciicircum">
          44 417 313 rmoveto
          140 hlineto
          -194 347 rlineto
          -114 hlineto
          -194 -347 rlineto
          140 hlineto
          113 217 rlineto
          endchar
        </CharString>
        <CharString name="asciitilde">
          44 170 120 -76 120 hstemhm
          hintmask 10000000
          548 328 rmoveto
          0 -63 -38 -39 vhcurveto
          hintmask 01000000
          -48 -101 44 -54 hhcurveto
          -60 -63 -52 0 hvcurveto
          10 -107 rlineto
          0 61 39 48 vhcurveto
          hintmask 10000000
          38 112 -44 54 hhcurveto
          60 53 51 0 hvcurveto
          endchar
        </CharString>
        <CharString name="asterisk">
          -93 499 74 147 -20 hstem
          511 499 rmoveto
          74 -123 vlineto
          38 122 -75 25 -39 -121 -101 73 -46 -63 102 -73 -105 -78 47 -59 103 79 41 -121 73 22 -38 120 rlineto
          endchar
        </CharString>
        <CharString name="at">
          443 -207 42 callsubr
          91 42 callgsubr
          635 727 -97 callgsubr
        </CharString>
        <CharString name="at.cap">
          390 -127 42 callsubr
          82 42 callgsubr
          626 807 -97 callgsubr
        </CharString>
        <CharString name="atilde">
          -57 callgsubr
          78 6 callgsubr
          80 136 hintmask 11101000
          221 -12 -107 callgsubr
          268 349 -47 callsubr
          hintmask 11011000
          -95 callsubr
          hintmask 11101000
          -79 callgsubr
          endchar
        </CharString>
        <CharString name="b">
          11 -11 114 295 114 0 -20 208 -20 20 0 hstem
          214 134 77 137 vstem
          412 512 rmoveto
          -60 -59 -51 0 hvcurveto
          55 239 -64 callsubr
          -156 -678 rlineto
          0 136 -33 108 164 96 156 204 81 -33 82 -117 vhcurveto
          -112 -409 rmoveto
          -43 -44 10 0 hvcurveto
          54 235 rlineto
          0 61 50 44 45 8 -34 -29 -76 -33 -156 -92 vhcurveto
          endchar
        </CharString>
        <CharString name="backslash">
          -32 21 -21 702 -20 hstem
          458 hmoveto
          -132 702 rlineto
          -140 hlineto
          133 -702 rlineto
          endchar
        </CharString>
        <CharString name="bar">
          15 callsubr
          -210 rmoveto
          134 910 -55 callgsubr
          endchar
        </CharString>
        <CharString name="braceleft">
          -228 -133 10 callgsubr
          225 98 -98 211 hintmask 11100000
          265 219 -82 callsubr
        </CharString>
        <CharString name="braceleft.cap">
          -228 -103 10 callgsubr
          232 98 -98 211 hintmask 11100000
          272 249 -82 callsubr
        </CharString>
        <CharString name="braceright">
          -229 -136 10 callgsubr
          -5 211 -98 98 hintmask 11010000
          166 404 -82 callgsubr
        </CharString>
        <CharString name="braceright.cap">
          -229 -106 10 callgsubr
          2 211 -98 98 hintmask 11010000
          173 434 -82 callgsubr
        </CharString>
        <CharString name="bracketleft">
          -270 -122 12 callgsubr
          187 113 vstem
          187 747 -20 callgsubr
        </CharString>
        <CharString name="bracketleft.cap">
          -271 -92 12 callgsubr
          193 113 vstem
          193 777 -20 callgsubr
        </CharString>
        <CharString name="bracketright">
          -271 -122 12 callgsubr
          90 113 vstem
          203 -122 -21 callgsubr
        </CharString>
        <CharString name="bracketright.cap">
          -271 -92 12 callgsubr
          97 113 vstem
          210 -92 -21 callgsubr
        </CharString>
        <CharString name="breve">
          -54 590 112 hstem
          210 121 105 121 vstem
          210 746 -96 callsubr
        </CharString>
        <CharString name="breve.cap">
          -54 783 105 hstem
          261 122 88 122 vstem
          261 927 rmoveto
          -94 callgsubr
          endchar
        </CharString>
        <CharString name="brokenbar">
          15 callsubr
          700 rmoveto
          -372 134 372 vlineto
          -134 -530 rmoveto
          -380 134 380 vlineto
          endchar
        </CharString>
        <CharString name="bullet">
          -58 121 -21 280 -20 hstem
          160 250 vstem
          160 100 rmoveto
          250 280 -250 hlineto
          endchar
        </CharString>
        <CharString name="c">
          -1 callgsubr
          hstem
          82 136 vstem
          -91 callgsubr
          endchar
        </CharString>
        <CharString name="cacute">
          -1 callgsubr
          75 -21 hstem
          82 136 vstem
          -91 callgsubr
          -75 64 -35 callgsubr
          78 -44 callsubr
        </CharString>
        <CharString name="caron">
          275 596 -27 callgsubr
          hstem
          395 152 15 167 vstem
          562 575 -75 callgsubr
          -30 callgsubr
          endchar
        </CharString>
        <CharString name="caron.cap">
          -54 776 151 hstem
          380 29 vstem
          593 927 -3 callsubr
        </CharString>
        <CharString name="ccaron">
          -107 -12 116 -116 123 277 123 -115 116 84 -27 callgsubr
          hstemhm
          82 136 -113 133 7 152 15 167 hintmask 0110110111000000
          412 575 -75 callgsubr
          -30 callgsubr
          hintmask 0101110111000000
          16 -63 rmoveto
          hintmask 1010111011000000
          -175 -86 -156 -194 -112 67 -62 96 72 73 25 0 hvcurveto
          11 99 rlineto
          0 -64 -8 -43 -55 -21 31 56 vhcurveto
          hintmask 0101110111000000
          -3 callgsubr
        </CharString>
        <CharString name="ccedilla">
          -106 0 callgsubr
          21 116 -99 -20 403 123 -115 116 hstemhm
          83 136 -113 133 -24 52 -21 105 hintmask 1101010101000000
          344 512 rmoveto
          hintmask 1101101001000000
          -175 -86 -156 -194 -98 51 -60 78 -13 hvcurveto
          -19 -85 rlineto
          hintmask 1101100010000000
          22 hlineto
          hintmask 1101100101000000
          -95 callgsubr
          -41 callgsubr
          hintmask 1110100101000000
          6 21 rlineto
          66 3 63 22 0 vvcurveto
          11 99 rlineto
          0 -64 -8 -43 vhcurveto
          hintmask 1101101001000000
          -55 -21 31 56 hvcurveto
          hintmask 1101010101000000
          -3 callgsubr
        </CharString>
        <CharString name="ccircumflex">
          -1 callgsubr
          84 -27 callgsubr
          hstemhm
          82 136 -24 39 callsubr
          hintmask 11111010
          -91 callgsubr
          hintmask 11110110
          -149 63 -90 callgsubr
        </CharString>
        <CharString name="cdotaccent">
          -1 callgsubr
          hstem
          82 136 vstem
          -91 callgsubr
          -43 70 -52 callsubr
        </CharString>
        <CharString name="cedilla">
          275 0 callgsubr
          38 -20 hstemhm
          369 52 -21 105 hintmask 11101000
          505 -124 rmoveto
          -41 callgsubr
          hintmask 11110000
          11 38 rlineto
          -52 hlineto
          -22 -99 rlineto
          22 hlineto
          hintmask 11101000
          -95 callgsubr
          endchar
        </CharString>
        <CharString name="cent">
          44 251 106 vstem
          251 -74 rmoveto
          106 hlineto
          25 110 rlineto
          38 3 37 6 0 vvcurveto
          21 112 rlineto
          0 -73 -4 -35 -88 -15 30 67 16 vhcurveto
          70 18 32 26 80 hhcurveto
          36 71 -3 0 hvcurveto
          34 112 rlineto
          0 -33 6 -37 4 vhcurveto
          26 105 rlineto
          -108 hlineto
          -23 -102 -106 -7 -83 -70 -35 -141 rlinecurve
          -24 -101 20 -112 123 -8 rrcurveto
          endchar
        </CharString>
        <CharString name="circumflex">
          275 596 -27 callgsubr
          hstem
          353 39 callsubr
          vstem
          353 575 -90 callgsubr
        </CharString>
        <CharString name="circumflex.cap.001">
          -54 213 4 callgsubr
          -80 hlineto
          endchar
        </CharString>
        <CharString name="colon">
          -358 45 136 -66 136 hintmask 01000000
          80 296 rmoveto
          -49 callgsubr
          -105 -449 19 callgsubr
          hintmask 10000000
          35 153 -13 callgsubr
          endchar
        </CharString>
        <CharString name="comma">
          -341 -109 -21 283 -20 hstem
          58 -130 rmoveto
          153 283 rlineto
          -147 hlineto
          -117 -283 rlineto
          endchar
        </CharString>
        <CharString name="commaaccent">
          -355 20 123 vstem
          -77 -37 callsubr
          endchar
        </CharString>
        <CharString name="copyright">
          125 150 60 59 95 139 95 60 60 hstemhm
          145 62 94 103 -103 205 -73 80 121 62 hintmask 1111101010000000
          38 callgsubr
          157 170 43 callsubr
          -168 -160 37 callsubr
          91 102 122 41 callgsubr
          -125 -122 -90 102 122 vhcurveto
          299 -65 rmoveto
          0 -35 -5 -32 vhcurveto
          hintmask 1111110110000000
          -25 -10 22 53 49 9 15 26 hvcurveto
          hintmask 1111101010000000
          32 35 -6 0 hvcurveto
          hintmask 1111110110000000
          7 86 rlineto
          0 -32 15 -48 -92 -40 -37 -122 -136 40 -34 88 56 28 18 0 vhcurveto
          endchar
        </CharString>
        <CharString name="currency">
          44 497 2 rmoveto
          92 92 -73 73 25 53 0 63 -25 54 rlinecurve
          73 73 -92 92 -73 -73 -54 25 -63 0 -53 -25 rlinecurve
          -73 73 -92 -92 73 -73 -26 -54 0 -63 26 -53 rlinecurve
          -73 -73 92 -92 73 73 53 -26 63 0 54 26 rlinecurve
          -138 124 rmoveto
          -29 29 0 48 29 29 29 29 48 0 29 -29 29 -29 0 -48 -29 -29 -29 -29 -48 0 -29 29 rrcurveto
          endchar
        </CharString>
        <CharString name="d">
          12 -12 114 295 114 189 -20 18 callsubr
          285 134 vstem
          635 700 -66 callsubr
        </CharString>
        <CharString name="dagger">
          -62 -49 -21 432 135 171 -20 hstem
          248 126 vstem
          112 362 19 callgsubr
          -101 -432 rlineto
          124 hlineto
          103 432 6 callsubr
          29 135 -13 callgsubr
          40 171 rlineto
          -125 hlineto
          -40 -171 -60 callsubr
          endchar
        </CharString>
        <CharString name="daggerdbl">
          -43 -49 -21 170 135 127 135 171 -20 hstem
          157 124 vstem
          157 -70 rmoveto
          124 hlineto
          40 170 rlineto
          138 -29 callsubr
          -138 hlineto
          31 127 rlineto
          137 hlineto
          29 -35 callsubr
          -135 hlineto
          40 171 rlineto
          -125 hlineto
          -40 -172 -138 1 -30 -135 rlineto
          136 hlineto
          -30 -127 -60 callsubr
          -31 -135 rlineto
          137 hlineto
          endchar
        </CharString>
        <CharString name="dcaron">
          121 -12 114 295 114 -61 -21 251 -20 40 -20 hstemhm
          80 136 285 134 47 122 hintmask 10110111
          804 -36 callsubr
          hintmask 11001111
          -109 271 -66 callsubr
        </CharString>
        <CharString name="dcroat">
          12 0 666 -614 648 -153 -20 hstemhm
          343 292 -290 308 hintmask 01010000
          635 700 rmoveto
          -55 callgsubr
          hintmask 10010000
          -8 -34 rlineto
          15 callgsubr
          hintmask 00101000
          -27 -119 rlineto
          120 hlineto
          -13 -57 rlineto
          0 -78 21 -42 -166 -86 -184 -162 -112 48 -65 96 vhcurveto
          hintmask 01010000
          72 56 64 0 hvcurveto
          hintmask 10010000
          -9 -52 rlineto
          130 hlineto
          hintmask 00101000
          126 547 rlineto
          54 hlineto
          hintmask 10010000
          28 119 rlineto
          -54 hlineto
          hintmask 01010000
          -247 -492 rmoveto
          0 -76 -72 -37 -36 -15 28 36 91 41 140 75 38 58 -14 0 vhcurveto
          endchar
        </CharString>
        <CharString name="degree">
          44 393 73 153 73 hstem
          255 75 152 73 vstem
          255 542 rmoveto
          -89 61 -60 89 89 61 60 89 89 -61 61 -89 -89 -61 -61 -89 vhcurveto
          75 hmoveto
          45 30 32 45 45 32 -32 -45 -45 -32 -31 -45 -45 -30 31 45 vhcurveto
          endchar
        </CharString>
        <CharString name="dieresis">
          -2 611 125 hstem
          207 118 86 118 vstem
          215 601 -21 callsubr
        </CharString>
        <CharString name="dieresis.cap">
          -106 256 -65 callgsubr
          33 -35 callsubr
          -111 hlineto
          endchar
        </CharString>
        <CharString name="divide">
          44 38 -21 174 120 41 132 hstem
          108 460 vstem
          271 352 rmoveto
          132 132 -132 hlineto
          -163 -293 rmoveto
          460 120 -460 hlineto
          163 -294 rmoveto
          132 132 -132 hlineto
          endchar
        </CharString>
        <CharString name="dollar">
          44 -119 107 213 472 hstemhm
          88 511 -309 319 hintmask 11010000
          609 636 rmoveto
          0 -25 9 -37 9 vhcurveto
          hintmask 11100000
          52 117 rlineto
          -86 hlineto
          -46 -102 rlineto
          2 -20 -21 2 -21 hhcurveto
          -139 -85 -94 -123 -85 35 -40 82 -39 hvcurveto
          -82 -183 rlineto
          -54 6 -52 10 0 vvcurveto
          -22 -97 rlineto
          0 33 -13 48 -12 vhcurveto
          -55 -122 rlineto
          85 hlineto
          49 109 rlineto
          hintmask 11010000
          -1 13 15 -1 14 hhcurveto
          149 101 79 150 82 -22 37 -95 44 hvcurveto
          78 172 rlineto
          44 -5 39 -6 0 vvcurveto
          -180 -340 rmoveto
          -69 -39 -25 -66 -2 vhcurveto
          69 152 rlineto
          30 -18 6 -13 -25 vvcurveto
          -87 271 rmoveto
          51 34 36 58 vhcurveto
          9 hlineto
          -65 -145 rlineto
          -31 19 -5 13 26 vvcurveto
          endchar
        </CharString>
        <CharString name="dotaccent">
          -261 206 582 -52 callsubr
        </CharString>
        <CharString name="dotaccent.cap">
          -261 240 -21 499 -20 73 138 hstem
          250 116 vstem
          250 771 -42 callsubr
          endchar
        </CharString>
        <CharString name="dotlessi">
          -272 14 callgsubr
          hstem
          -6 callgsubr
          vstem
          55 hmoveto
          28 callgsubr
        </CharString>
        <CharString name="dotlessj">
          -272 1 callgsubr
          115 500 rcurveline
          -55 callgsubr
          endchar
        </CharString>
        <CharString name="e">
          -65 callsubr
          hstem
          81 134 133 19 callsubr
          vstem
          288 102 -106 callgsubr
          endchar
        </CharString>
        <CharString name="eacute">
          -65 callsubr
          76 -21 hstem
          81 134 133 19 callsubr
          vstem
          288 102 -106 callgsubr
          8 282 -35 callgsubr
          78 -44 callsubr
        </CharString>
        <CharString name="ebreve">
          -65 callsubr
          79 112 hstemhm
          81 134 29 121 -17 19 callsubr
          -60 121 hintmask 1111101100000000
          288 102 -106 callgsubr
          hintmask 1111110010000000
          -30 452 -96 callsubr
        </CharString>
        <CharString name="ecaron">
          -65 callsubr
          85 -27 callgsubr
          hstemhm
          81 134 26 152 -45 19 callsubr
          -122 167 hintmask 1111110110000000
          288 102 -106 callgsubr
          134 281 -75 callgsubr
          hintmask 1111111001000000
          -30 callgsubr
          endchar
        </CharString>
        <CharString name="ecircumflex">
          -40 102 473 -213 277 -128 239 hstemhm
          81 458 -214 28 2 98 hintmask 10001100
          185 575 rmoveto
          140 hlineto
          hintmask 01001100
          58 64 rlineto
          hintmask 10010000
          24 -64 17 callsubr
          hintmask 00101100
          33 callgsubr
          hintmask 10001100
          -65 -648 rmoveto
          -69 callsubr
          hvcurveto
          35 hlineto
          hintmask 01001100
          -47 callgsubr
          hvcurveto
          hintmask 00101100
          -7 callsubr
          vhcurveto
          hintmask 10010000
          -195 -79 -172 -181 -117 54 -53 115 96 93 28 0 hvcurveto
          15 99 rlineto
          0 -98 -13 -68 vhcurveto
          -55 192 rmoveto
          72 17 39 37 59 hhcurveto
          32 18 -11 -32 -47 -30 -19 -94 hvcurveto
          endchar
        </CharString>
        <CharString name="edieresis">
          -40 195 541 -374 239 0 135 hstemhm
          331 236 -212 60 115 5 hintmask 00110000
          211 601 -63 callgsubr
          hintmask 00101100
          173 -135 rmoveto
          120 hlineto
          hintmask 00110000
          -71 callgsubr
          hintmask 00101100
          -158 -634 rmoveto
          -40 -33 19 40 hvcurveto
          hintmask 10010000
          12 1 14 2 8 vhcurveto
          35 hlineto
          hintmask 01001100
          -47 callgsubr
          -7 callsubr
          -195 -79 -172 -181 -117 54 -53 115 96 93 28 0 hvcurveto
          15 99 rlineto
          0 -98 -13 -68 vhcurveto
          -55 192 rmoveto
          72 17 39 37 59 hhcurveto
          32 18 -11 -32 -47 -30 -19 -94 hvcurveto
          endchar
        </CharString>
        <CharString name="edotaccent">
          -65 callsubr
          hstem
          81 134 133 19 callsubr
          vstem
          288 102 -106 callgsubr
          31 288 -52 callsubr
        </CharString>
        <CharString name="egrave">
          -65 callsubr
          hstem
          81 134 133 19 callsubr
          vstem
          288 102 -106 callgsubr
          -13 478 -70 callsubr
          endchar
        </CharString>
        <CharString name="eight">
          44 -14 118 171 114 166 118 0 -20 hstemhm
          65 149 -61 141 136 145 -85 148 hintmask 11010110
          441 673 rmoveto
          -183 -105 -117 -117 -28 -3 -25 45 -46 hvcurveto
          hintmask 11011010
          -51 -34 -79 -67 -85 vvcurveto
          -109 55 -59 149 165 141 94 137 42 -7 47 -45 34 vhcurveto
          hintmask 11101001
          69 46 46 48 106 vvcurveto
          70 -65 63 -132 vhcurveto
          -141 -569 rmoveto
          -63 -23 21 55 45 40 34 45 16 hvcurveto
          88 hlineto
          hintmask 11101010
          35 -15 8 -17 -32 vvcurveto
          -52 -55 -55 -75 vhcurveto
          111 451 rmoveto
          hintmask 11100101
          56 23 -31 -38 -33 -37 -42 -38 -22 hvcurveto
          -88 hlineto
          -26 22 -7 11 33 vvcurveto
          48 52 52 65 vhcurveto
          endchar
        </CharString>
        <CharString name="eight.dnom">
          -111 85 164 85 hstem
          10 33 callsubr
          195 223 -105 callsubr
        </CharString>
        <CharString name="eight.numr">
          367 85 164 85 hstem
          118 33 callsubr
          303 701 -105 callsubr
        </CharString>
        <CharString name="eight.pnum">
          -38 -10 127 83 117 75 117 hstem
          30 155 180 146 vstem
          361 509 rmoveto
          -176 -86 -81 -82 -11 1 -34 48 -36 hvcurveto
          -70 -32 -48 -54 -70 vvcurveto
          -67 73 -52 129 216 63 94 85 26 -10 36 -44 34 vhcurveto
          67 28 33 46 55 vvcurveto
          60 -64 55 -132 vhcurveto
          -97 -392 rmoveto
          -63 -16 16 18 18 14 25 42 6 hvcurveto
          88 hlineto
          24 -4 12 -9 -18 vvcurveto
          -22 -15 -30 -86 vhcurveto
          68 275 rmoveto
          56 16 -13 -16 -17 -10 -17 -35 -12 hvcurveto
          -88 hlineto
          -22 9 -4 9 10 vvcurveto
          13 1 34 86 vhcurveto
          endchar
        </CharString>
        <CharString name="eightinferior">
          -111 85 164 85 hstem
          9 33 callsubr
          194 223 -105 callsubr
        </CharString>
        <CharString name="eightsuperior">
          467 85 164 85 hstem
          144 33 callsubr
          329 801 -105 callsubr
        </CharString>
        <CharString name="ellipsis">
          98 43 136 94 136 96 136 vstem
          8 hmoveto
          -49 callgsubr
          195 -153 rmoveto
          -49 callgsubr
          197 -153 rmoveto
          -49 callgsubr
          endchar
        </CharString>
        <CharString name="emacron">
          -65 callsubr
          109 116 hstem
          81 134 133 19 callsubr
          vstem
          288 102 -106 callgsubr
          -56 333 -61 callsubr
        </CharString>
        <CharString name="emdash">
          510 209 22 callsubr
          75 323 rmoveto
          -114 1000 114 vlineto
          endchar
        </CharString>
        <CharString name="emdash.cap">
          511 239 22 callsubr
          82 353 rmoveto
          -114 1000 114 vlineto
          endchar
        </CharString>
        <CharString name="endash">
          10 209 22 callsubr
          75 323 rmoveto
          -114 500 114 vlineto
          endchar
        </CharString>
        <CharString name="endash.cap">
          11 239 22 callsubr
          82 353 rmoveto
          -114 500 114 vlineto
          endchar
        </CharString>
        <CharString name="eng">
          -14 179 hmoveto
          80 342 rlineto
          0 65 44 31 27 12 -15 -22 3 vhcurveto
          3 -24 -4 -32 -8 -32 -62 -259 rcurveline
          -16 -68 -15 -15 -101 -51 32 -114 rcurveline
          152 66 43 55 32 132 61 254 rcurveline
          12 52 11 53 -10 56 rrcurveto
          56 -10 -37 33 -69 hhcurveto
          -49 -47 -36 -23 -30 hvcurveto
          12 47 rlineto
          -127 hlineto
          -118 -499 rlineto
          endchar
        </CharString>
        <CharString name="eogonek">
          -40 -194 118 64 114 -67 -20 180 99 109 108 hstemhm
          81 134 6 144 -17 19 callsubr
          hintmask 1011111010000000
          415 -73 rmoveto
          -57 callsubr
          19 30 33 24 20 vhcurveto
          11 3 9 3 0 vvcurveto
          15 99 rlineto
          hintmask 1101110110000000
          0 -98 -13 -68 -69 callsubr
          vhcurveto
          35 hlineto
          -47 callgsubr
          -7 callsubr
          -195 -79 -172 -181 -117 54 -53 115 9 9 0 1 9 hvcurveto
          hintmask 1011111010000000
          -29 -31 -27 -38 -37 -70 callgsubr
          -169 477 rmoveto
          hintmask 1011110110000000
          72 17 39 37 59 hhcurveto
          32 18 -11 -32 -47 -30 -19 -94 hvcurveto
          endchar
        </CharString>
        <CharString name="equal">
          44 87 121 87 121 hstem
          116 444 vstem
          116 295 rmoveto
          444 121 -444 hlineto
          -329 vmoveto
          444 121 -444 hlineto
          endchar
        </CharString>
        <CharString name="eth">
          11 -9 0 447 0 hstem
          85 135 233 120 vstem
          381 544 rmoveto
          50 -22 34 -38 -12 -68 rrcurveto
          0 -49 22 -65 -133 -92 -93 -124 -33 vhcurveto
          -119 -32 56 -111 144 hhcurveto
          184 83 121 241 59 hvcurveto
          31 126 -24 93 -78 57 54 38 rcurveline
          -43 72 -98 -67 -46 15 -54 8 -64 3 rlinecurve
          -44 -116 64 -9 -45 -31 46 -72 rlineto
          46 -152 rmoveto
          65 40 -21 -1 2 hvcurveto
          -123 -31 -50 -55 -67 hhcurveto
          -71 -7 42 62 17 hvcurveto
          55 15 38 41 49 hhcurveto
          endchar
        </CharString>
        <CharString name="exclam">
          -353 0 153 547 -20 hstem
          14 136 vstem
          77 258 rmoveto
          126 hlineto
          112 442 rlineto
          -143 hlineto
          -158 -700 rmoveto
          -49 callgsubr
          endchar
        </CharString>
        <CharString name="exclamdown">
          -355 -200 -20 567 153 hstem
          128 136 vstem
          201 242 -23 callgsubr
        </CharString>
        <CharString name="exclamdown.cap">
          -353 -20 -20 567 153 hstem
          170 136 vstem
          243 422 -23 callgsubr
        </CharString>
        <CharString name="f">
          -188 -190 -21 597 114 98 22 callsubr
          196 134 vstem
          300 386 rmoveto
          102 hlineto
          0 callsubr
          -105 hlineto
          5 19 rlineto
          41 10 10 38 34 hhcurveto
          30 35 -7 0 hvcurveto
          24 98 rlineto
          0 -49 23 -46 -111 -40 -57 -135 -31 vhcurveto
          -5 -20 rlineto
          -43 hlineto
          -28 -116 rlineto
          46 hlineto
          -140 -595 rlineto
          121 hlineto
          63 211 rlineto
          endchar
        </CharString>
        <CharString name="five">
          44 -12 118 194 118 125 118 hstem
          248 82 89 141 vstem
          248 661 rmoveto
          -111 -359 100 -23 rlineto
          0 54 21 50 57 21 -22 -50 -65 -57 -57 -78 -75 -116 29 0 vhcurveto
          -31 -104 rlineto
          0 117 -43 118 150 113 111 159 114 -67 46 -107 -44 -71 -31 0 vhcurveto
          59 156 rlineto
          284 hlineto
          27 118 rlineto
          endchar
        </CharString>
        <CharString name="five.dnom">
          -107 90 31 89 19 90 hstemhm
          31 9 callgsubr
          89 212 -99 callsubr
        </CharString>
        <CharString name="five.numr">
          371 90 31 89 19 90 hstemhm
          146 9 callgsubr
          204 690 -99 callsubr
        </CharString>
        <CharString name="five.pnum">
          -55 -9 122 92 116 -95 -21 hstem
          66 155 132 144 vstem
          160 500 rmoveto
          -94 -291 100 -23 rlineto
          0 66 19 41 59 21 -13 -26 -39 -42 -14 -58 -74 -132 32 0 vhcurveto
          -42 -121 rlineto
          0 143 -33 89 171 89 75 117 110 -79 28 -104 -48 -45 -15 0 vhcurveto
          30 62 rlineto
          271 hlineto
          33 132 rlineto
          endchar
        </CharString>
        <CharString name="fiveinferior">
          -107 90 31 89 19 90 hstemhm
          31 9 callgsubr
          89 212 -99 callsubr
        </CharString>
        <CharString name="fivesuperior">
          471 90 31 89 19 90 hstemhm
          169 9 callgsubr
          227 790 -99 callsubr
        </CharString>
        <CharString name="florin">
          44 -243 116 502 124 86 123 -13 -20 hstemhm
          316 127 hintmask 11101000
          412 375 rmoveto
          133 hlineto
          29 124 rlineto
          -133 hlineto
          2 13 rlineto
          36 6 18 37 40 hhcurveto
          30 59 -2 0 hvcurveto
          hintmask 11011000
          27 112 rlineto
          hintmask 11101000
          7 -33 -53 6 -36 hhcurveto
          -102 -42 -45 -143 -41 hvcurveto
          -6 -21 rlineto
          -89 hlineto
          -28 -124 rlineto
          88 hlineto
          -104 -438 rlineto
          -48 -11 -21 -16 -27 hhcurveto
          -27 -50 3 0 hvcurveto
          -24 -106 rlineto
          0 61 -13 32 106 57 37 143 34 vhcurveto
          endchar
        </CharString>
        <CharString name="four">
          44 112 22 callsubr
          93 147 82 136 vstem
          322 -5 19 callgsubr
          27 117 rlineto
          60 hlineto
          27 114 rlineto
          -61 hlineto
          41 178 -13 callgsubr
          -41 -178 rlineto
          -135 hlineto
          279 434 rlineto
          -150 hlineto
          -276 -448 -23 -100 rlineto
          279 hlineto
          endchar
        </CharString>
        <CharString name="four.dnom">
          -79 -8 callgsubr
          hstem
          128 105 vstem
          128 -100 -98 callsubr
        </CharString>
        <CharString name="four.numr">
          399 -8 callgsubr
          hstem
          235 105 vstem
          235 378 -98 callsubr
        </CharString>
        <CharString name="four.pnum">
          -48 21 -21 84 121 295 -20 hstem
          262 138 vstem
          262 hmoveto
          -56 callgsubr
          21 84 rlineto
          63 hlineto
          29 121 rlineto
          -61 hlineto
          27 110 -60 callsubr
          -27 -110 rlineto
          -99 hlineto
          218 295 rlineto
          -159 hlineto
          -227 -313 -27 -103 rlineto
          263 hlineto
          endchar
        </CharString>
        <CharString name="fourinferior">
          -79 -8 callgsubr
          hstem
          125 105 vstem
          125 -100 -98 callsubr
        </CharString>
        <CharString name="foursuperior">
          499 -8 callgsubr
          hstem
          258 105 vstem
          258 478 -98 callsubr
        </CharString>
        <CharString name="fraction">
          -443 -11 -21 742 -20 hstem
          -158 126 305 126 vstem
          -32 -32 -36 callgsubr
          endchar
        </CharString>
        <CharString name="g">
          -37 callgsubr
          hstem
          9 122 210 126 vstem
          -103 callsubr
          -87 callgsubr
          endchar
        </CharString>
        <CharString name="gbreve">
          -37 callgsubr
          78 112 hstemhm
          9 122 92 121 -3 126 -18 121 hintmask 11111010
          -103 callsubr
          hintmask 11111101
          -87 callgsubr
          -73 480 -96 callsubr
        </CharString>
        <CharString name="gcircumflex">
          -37 callgsubr
          84 -27 callgsubr
          hstemhm
          9 122 50 130 30 126 -98 146 hintmask 1111111100000000
          -103 callsubr
          -87 callgsubr
          -115 309 rmoveto
          130 hlineto
          hintmask 1111111010000000
          58 64 24 -64 rlineto
          122 hlineto
          -86 175 -5 callgsubr
        </CharString>
        <CharString name="gcommaaccent">
          -32 -118 86 -61 907 -808 386 hstemhm
          103 123 -95 278 hintmask 01001000
          393 814 rmoveto
          -107 -236 rlineto
          123 hlineto
          98 236 rlineto
          hintmask 10110000
          -281 -1044 rmoveto
          151 90 81 117 90 -75 26 -67 10 hvcurveto
          -68 10 -26 5 17 vvcurveto
          16 15 20 0 vhcurveto
          0 18 -5 25 122 87 83 101 21 -2 19 -2 11 vhcurveto
          58 hlineto
          25 108 -146 -6 rlineto
          0 -72 18 -49 -126 -81 -84 -112 -67 27 -34 41 -24 vhcurveto
          0 -60 -51 -45 vvcurveto
          hintmask 01001000
          -24 4 -13 16 -16 vhcurveto
          -56 -27 -66 -38 -70 vvcurveto
          hintmask 10110000
          -100 88 -37 129 vhcurveto
          47 221 rmoveto
          41 -7 27 -5 -27 vvcurveto
          -59 -64 -11 -54 vhcurveto
          hintmask 10101000
          -68 -24 27 29 27 35 29 22 12 hvcurveto
          17 -4 33 -5 35 -6 rrcurveto
          23 275 rmoveto
          hintmask 01010000
          -48 -22 21 35 45 31 36 48 48 22 -21 -35 -45 -32 -36 -47 hvcurveto
          endchar
        </CharString>
        <CharString name="gdotaccent">
          -37 callgsubr
          hstem
          9 122 210 126 vstem
          -103 callsubr
          -87 callgsubr
          -2 316 -52 callsubr
        </CharString>
        <CharString name="germandbls">
          48 -12 114 496 114 hstemhm
          54 126 36 161 70 136 -97 136 hintmask 11110100
          180 hmoveto
          118 502 rlineto
          69 16 33 27 63 hhcurveto
          hintmask 11111000
          52 24 -19 -26 -28 -11 -9 -64 -30 hvcurveto
          -67 -31 -39 -36 -82 vvcurveto
          -52 20 -25 62 -37 vhcurveto
          52 -31 8 -7 -24 vvcurveto
          -29 -24 -30 -62 -46 -70 12 0 vhcurveto
          -29 -98 rlineto
          0 87 -28 74 vhcurveto
          hintmask 11110100
          128 78 74 118 67 -25 17 -51 33 hvcurveto
          -54 35 -12 9 21 vvcurveto
          27 24 12 66 26 vhcurveto
          72 28 19 47 65 vvcurveto
          92 -68 53 -130 -136 -75 -42 -150 -36 vhcurveto
          -123 -520 rlineto
          endchar
        </CharString>
        <CharString name="grave">
          2 308 -9 callsubr
          endchar
        </CharString>
        <CharString name="grave.cap">
          -3 349 -72 callgsubr
          endchar
        </CharString>
        <CharString name="greater">
          44 31 -21 479 -20 hstem
          416 254 rmoveto
          -261 -108 rlineto
          -136 vlineto
          406 186 rlineto
          110 vlineto
          -406 183 rlineto
          -136 vlineto
          endchar
        </CharString>
        <CharString name="greaterequal">
          36 callsubr
          130 421 -149 149 hintmask 11110000
          hintmask 11101000
          402 337 rmoveto
          -272 -54 rlineto
          -130 vlineto
          421 121 rlineto
          116 vlineto
          -421 126 rlineto
          -130 vlineto
          421 -247 rmoveto
          -421 -120 421 hlineto
          endchar
        </CharString>
        <CharString name="guillemotleft">
          -34 24 0 19 0 20 callgsubr
          51 -21 112 131 -120 0 hstemhm
          68 105 -97 100 150 100 hintmask 1011101010000000
          576 436 rmoveto
          -19 callgsubr
          113 65 rlineto
          -213 131 rmoveto
          hintmask 1011010110000000
          -19 callgsubr
          rlineto
          hintmask 1101101010000000
          113 65 rlineto
          endchar
        </CharString>
        <CharString name="guillemotright">
          -42 4 callsubr
          140 100 vstem
          259 43 -42 callgsubr
          -277 -131 -42 callgsubr
          endchar
        </CharString>
        <CharString name="guilsinglleft">
          -284 43 0 20 callgsubr
          142 131 hstem
          76 100 vstem
          326 436 rmoveto
          -19 callgsubr
          113 65 rlineto
          endchar
        </CharString>
        <CharString name="guilsinglright">
          -282 4 callsubr
          vstem
          19 43 -42 callgsubr
          endchar
        </CharString>
        <CharString name="h">
          -78 callsubr
          endchar
        </CharString>
        <CharString name="hbar">
          -3 21 -21 396 116 18 116 54 -20 hstem
          216 134 52 139 vstem
          125 530 rmoveto
          52 hlineto
          -122 -530 rlineto
          -5 callsubr
          -1 callsubr
          65 60 31 35 5 -86 callsubr
          61 35 vvcurveto
          78 -31 63 -91 -66 -59 -59 0 vhcurveto
          17 77 rlineto
          122 hlineto
          28 116 rlineto
          -123 hlineto
          12 54 -64 callsubr
          -13 -54 rlineto
          -51 hlineto
          endchar
        </CharString>
        <CharString name="hcircumflex">
          -78 callsubr
          218 749 -93 callsubr
          -80 hlineto
          endchar
        </CharString>
        <CharString name="hungarumlaut">
          173 546 563 -23 callsubr
        </CharString>
        <CharString name="hungarumlaut.cap">
          173 616 740 -31 callsubr
          -111 -198 rlineto
          -105 -39 -31 callsubr
          -112 -199 rlineto
          endchar
        </CharString>
        <CharString name="hyphen">
          -249 205 23 callgsubr
          83 253 vstem
          53 205 28 callsubr
        </CharString>
        <CharString name="hyphen.cap">
          -249 235 23 callgsubr
          90 253 vstem
          60 235 28 callsubr
        </CharString>
        <CharString name="i">
          -17 callsubr
          72 137 hstem
          55 hmoveto
          -74 callgsubr
          11 52 -10 callgsubr
        </CharString>
        <CharString name="iacute">
          -17 callsubr
          107 -21 hstem
          -6 callgsubr
          vstem
          55 hmoveto
          -74 callgsubr
          12 76 -35 callgsubr
          78 -44 callsubr
        </CharString>
        <CharString name="ibreve">
          -17 callsubr
          110 112 hstemhm
          -6 callgsubr
          -77 121 105 121 hintmask 11110100
          55 hmoveto
          -74 callgsubr
          hintmask 11101100
          -58 246 -96 callsubr
        </CharString>
        <CharString name="icircumflex">
          -273 596 -21 64 -20 hstem
          69 140 vstem
          69 575 17 callgsubr
          132 hlineto
          33 callgsubr
          -182 -750 25 callgsubr
        </CharString>
        <CharString name="idieresis">
          -273 622 -21 135 -20 hstem
          89 120 vstem
          89 601 -63 callgsubr
          173 -135 -63 callgsubr
          -269 -736 25 callgsubr
        </CharString>
        <CharString name="igrave">
          -17 callsubr
          hstem
          -6 callgsubr
          vstem
          55 hmoveto
          -74 callgsubr
          -35 272 -70 callsubr
          endchar
        </CharString>
        <CharString name="imacron">
          -17 callsubr
          140 116 hstem
          -6 callgsubr
          vstem
          55 hmoveto
          -74 callgsubr
          -69 127 -61 callsubr
        </CharString>
        <CharString name="infinity">
          44 121 115 112 115 hstem
          94 122 262 122 vstem
          233 121 rmoveto
          47 36 18 59 31 hvcurveto
          -59 30 37 -18 47 hhcurveto
          90 49 56 115 115 -49 56 -88 -49 -36 -19 -59 -31 hvcurveto
          59 -31 -37 19 -48 hhcurveto
          -88 -49 -56 -116 -114 49 -56 90 hvcurveto
          69 171 rmoveto
          -32 -17 -14 -24 -19 hhcurveto
          -27 -9 23 32 34 8 23 28 19 14 -22 -34 17 hvcurveto
          90 hmoveto
          34 17 14 22 19 hhcurveto
          28 8 -23 -34 -32 -9 -23 -27 -19 -14 24 32 -17 hvcurveto
          endchar
        </CharString>
        <CharString name="integral">
          44 -199 120 740 23 callgsubr
          278 138 vstem
          416 -16 rmoveto
          608 vlineto
          50 10 19 38 32 32 -4 0 vhcurveto
          4 110 rlineto
          0 -67 14 -38 -110 -39 -45 -143 vhcurveto
          -606 vlineto
          -50 -13 -16 -38 -28 -25 3 0 vhcurveto
          -4 -110 rlineto
          0 58 -13 39 82 67 41 142 vhcurveto
          endchar
        </CharString>
        <CharString name="iogonek">
          -273 11 callsubr
          26 -21 500 -20 72 137 hstemhm
          -37 144 hintmask 11011100
          157 -93 rmoveto
          -57 callsubr
          vhcurveto
          hintmask 10111100
          24 49 41 33 17 vhcurveto
          -76 callgsubr
          -134 hlineto
          -115 -498 rlineto
          -38 -30 -54 -57 -52 -70 callgsubr
          37 755 -10 callgsubr
        </CharString>
        <CharString name="itilde">
          -17 callsubr
          110 6 callgsubr
          -6 callgsubr
          hintmask 11101000
          55 hmoveto
          -74 callgsubr
          254 247 -47 callsubr
          hintmask 11011000
          -95 callsubr
          hintmask 11101000
          -79 callgsubr
          endchar
        </CharString>
        <CharString name="j">
          -273 -230 107 -86 -21 773 137 hstemhm
          -6 callgsubr
          -19 134 hintmask 10110000
          1 callgsubr
          rrcurveto
          hintmask 01101000
          -76 callgsubr
          -134 hlineto
          hintmask 01110000
          9 43 -10 callgsubr
        </CharString>
        <CharString name="jcircumflex">
          -17 callsubr
          hstemhm
          -70 125 -83 332 hintmask 11100000
          55 hmoveto
          -14 -61 -7 -8 -104 -54 rrcurveto
          hintmask 11010000
          42 -107 175 77 10 15 32 138 rlinecurve
          -76 callgsubr
          -134 hlineto
          hintmask 11100000
          -90 75 -90 callgsubr
        </CharString>
        <CharString name="k">
          43 callgsubr
          hstem
          -6 callgsubr
          46 0 88 137 vstem
          189 hmoveto
          -11 callgsubr
          -127 -181 -34 -7 90 389 -64 callsubr
          -161 -700 rlineto
          endchar
        </CharString>
        <CharString name="kcommaaccent">
          43 callgsubr
          hstemhm
          -6 callgsubr
          -18 123 -59 0 88 137 hintmask 11101010
          74 -37 callsubr
          18 72 rmoveto
          hintmask 11110110
          -11 callgsubr
          hintmask 11101010
          -127 -181 -34 -7 90 389 -64 callsubr
          hintmask 11110110
          -161 -700 rlineto
          endchar
        </CharString>
        <CharString name="l">
          -14 callgsubr
          endchar
        </CharString>
        <CharString name="lacute">
          -14 callgsubr
          19 65 -68 callsubr
        </CharString>
        <CharString name="lcaron">
          -163 21 -21 450 -21 251 -20 40 -20 hstemhm
          -6 callgsubr
          209 122 hintmask 11101100
          520 -36 callsubr
          -405 -429 rmoveto
          -5 callsubr
          hintmask 11011100
          161 700 -64 callsubr
          endchar
        </CharString>
        <CharString name="lcommaaccent">
          -272 21 -21 700 -20 hstemhm
          46 123 -114 134 hintmask 11100000
          46 -72 -80 callsubr
          hintmask 11010000
          106 309 rmoveto
          -5 callsubr
          161 700 -64 callsubr
          endchar
        </CharString>
        <CharString name="less">
          44 31 -21 479 -20 hstem
          520 353 rmoveto
          136 vlineto
          -406 -183 rlineto
          -110 vlineto
          406 -186 rlineto
          136 vlineto
          -261 108 rlineto
          endchar
        </CharString>
        <CharString name="lessequal">
          36 callsubr
          118 149 -149 421 hintmask 11101000
          539 386 rmoveto
          130 vlineto
          -421 -126 rlineto
          -116 vlineto
          421 -121 rlineto
          130 vlineto
          hintmask 11110000
          -272 54 rlineto
          hintmask 11101000
          -149 -318 rmoveto
          421 120 -421 hlineto
          endchar
        </CharString>
        <CharString name="logicalnot">
          44 125 -21 134 23 callgsubr
          429 120 vstem
          113 358 rmoveto
          -120 316 -134 120 254 vlineto
          endchar
        </CharString>
        <CharString name="lozenge">
          44 0 114 432 22 callsubr
          268 hmoveto
          175 hlineto
          148 324 -148 336 rlineto
          -175 hlineto
          -149 -336 rlineto
          245 -210 rmoveto
          -17 hlineto
          -95 210 95 222 rlineto
          17 hlineto
          94 -222 rlineto
          endchar
        </CharString>
        <CharString name="lslash">
          -224 21 -21 502 -21 219 -20 hstemhm
          49 307 -279 134 hintmask 11101000
          77 hmoveto
          -5 callsubr
          73 318 113 71 rlineto
          hintmask 11110000
          -41 92 -40 -25 56 244 -64 callsubr
          -79 -341 -110 -69 41 -93 37 23 rlineto
          endchar
        </CharString>
        <CharString name="m">
          260 0 -20 437 -21 hstem
          -6 callgsubr
          194 136 149 135 vstem
          463 hmoveto
          18 callgsubr
          8 33 7 60 0 vvcurveto
          0 60 58 37 30 7 -22 -40 -21 -12 -53 -6 -25 vhcurveto
          -56 -235 rlineto
          -5 callsubr
          18 callgsubr
          7 30 12 60 36 vvcurveto
          78 -29 63 -91 -77 -79 -71 0 0 -19 71 -85 -73 -57 -60 0 vhcurveto
          5 48 rlineto
          -128 hlineto
          -115 -500 rlineto
          -5 callsubr
          -1 callsubr
          62 60 32 34 7 -21 -37 -23 -12 -55 -6 -25 vhcurveto
          -54 -235 rlineto
          endchar
        </CharString>
        <CharString name="macron">
          -54 620 116 hstem
          217 627 -61 callsubr
        </CharString>
        <CharString name="macron.cap">
          -54 249 806 -22 callgsubr
          endchar
        </CharString>
        <CharString name="minus">
          44 191 23 callgsubr
          119 436 vstem
          119 191 rmoveto
          436 120 -436 hlineto
          endchar
        </CharString>
        <CharString name="mu">
          44 -189 -21 210 104 -95 -21 302 -20 230 -20 hstemhm
          27 134 -48 139 104 128 hintmask 10111101
          27 -210 rmoveto
          -5 callsubr
          46 201 rlineto
          -2 8 10 -1 10 hhcurveto
          66 61 61 0 hvcurveto
          hintmask 11011011
          -80 callgsubr
          -134 hlineto
          -19 callsubr
          -13 callsubr
          -12 callgsubr
          13 4 25 5 24 vhcurveto
          15 66 rlineto
          -1 hlineto
          49 210 -64 callsubr
          -48 -210 -9 -39 rlineto
          -1 -3 -1 -3 -3 vvcurveto
          -3 -10 rlineto
          endchar
        </CharString>
        <CharString name="multiply">
          44 48 -21 446 -20 hstem
          200 473 rmoveto
          -85 -85 141 -138 -142 -139 85 -84 139 141 139 -142 85 85 -143 139 143 140 -84 85 -140 -143 rlineto
          endchar
        </CharString>
        <CharString name="n">
          -25 callgsubr
          29 callsubr
          hintmask 11011000
          29 callgsubr
          63 60 32 37 4 -86 callsubr
          63 33 vvcurveto
          hintmask 10111000
          -43 callsubr
          endchar
        </CharString>
        <CharString name="nacute">
          -25 callgsubr
          75 -21 29 callsubr
          hintmask 11011100
          55 hmoveto
          -76 callgsubr
          128 hlineto
          -6 -49 rlineto
          hintmask 10111100
          -52 callgsubr
          99 576 -35 callgsubr
          78 -44 callsubr
        </CharString>
        <CharString name="ncaron">
          -25 callgsubr
          84 -27 callgsubr
          hstemhm
          -6 callgsubr
          73 152 -84 134 -35 167 hintmask 1101110100000000
          29 callgsubr
          63 60 32 37 4 -86 callsubr
          63 33 vvcurveto
          hintmask 1011110100000000
          -43 callsubr
          374 575 -75 callgsubr
          hintmask 1101111010000000
          -30 callgsubr
          endchar
        </CharString>
        <CharString name="ncommaaccent">
          -25 callgsubr
          hstemhm
          -6 callgsubr
          4 123 14 134 hintmask 11011100
          29 callgsubr
          63 60 32 37 4 -86 callsubr
          63 33 vvcurveto
          hintmask 10111100
          -43 callsubr
          41 -37 callsubr
          endchar
        </CharString>
        <CharString name="nine">
          44 -12 126 125 122 207 -21 hstem
          125 134 185 161 vstem
          79 10 rmoveto
          0 74 -22 74 199 179 150 282 153 -57 99 -130 -205 -88 -147 -109 -126 58 -51 113 48 100 27 -1 vhcurveto
          -92 -23 -77 -59 -86 hhcurveto
          -79 -58 15 0 hvcurveto
          218 232 rmoveto
          -56 -24 13 54 73 63 46 66 82 21 -75 -96 -19 hvcurveto
          0 -79 -15 -54 vhcurveto
          endchar
        </CharString>
        <CharString name="nine.dnom">
          -111 34 callgsubr
          40 107 31 100 vstem
          -97 vmoveto
          -100 callgsubr
        </CharString>
        <CharString name="nine.numr">
          367 34 callgsubr
          152 107 31 100 vstem
          112 381 rmoveto
          -100 callgsubr
        </CharString>
        <CharString name="nine.pnum">
          -57 -10 121 72 110 109 109 hstem
          76 135 150 162 vstem
          24 19 rmoveto
          0 109 -29 74 194 122 151 197 99 -54 74 -129 -184 -80 -109 -95 -80 44 -44 123 46 40 13 13 32 vhcurveto
          -71 -19 -37 -27 -86 hhcurveto
          -80 -76 15 0 hvcurveto
          220 167 rmoveto
          -52 -20 12 25 40 26 32 74 72 7 -43 -27 -6 -1 -6 -1 -4 hvcurveto
          0 -46 -23 -59 vhcurveto
          endchar
        </CharString>
        <CharString name="nineinferior">
          -111 34 callgsubr
          39 107 31 100 vstem
          -1 -97 rmoveto
          -100 callgsubr
        </CharString>
        <CharString name="ninesuperior">
          467 34 callgsubr
          172 107 31 100 vstem
          132 481 rmoveto
          -100 callgsubr
        </CharString>
        <CharString name="notequal">
          44 -15 585 -275 121 hstemhm
          412 104 hintmask 01100000
          116 295 rmoveto
          175 hlineto
          -38 -87 rlineto
          -137 -121 84 hlineto
          hintmask 10100000
          -45 -102 104 -41 63 143 rlineto
          238 121 -185 hlineto
          hintmask 01100000
          38 87 rlineto
          147 121 -94 hlineto
          50 113 rlineto
          hintmask 10100000
          -104 41 rlineto
          hintmask 01100000
          -68 -154 rlineto
          -228 hlineto
          endchar
        </CharString>
        <CharString name="ntilde">
          -25 callgsubr
          78 118 -74 117 29 callsubr
          hintmask 11010110
          55 hmoveto
          -76 callgsubr
          128 hlineto
          -6 -49 rlineto
          hintmask 10110110
          -52 callgsubr
          389 747 -47 callsubr
          hintmask 11001110
          -95 callsubr
          hintmask 11010110
          -79 callgsubr
          endchar
        </CharString>
        <CharString name="numbersign">
          44 133 96 282 96 vstem
          579 165 rmoveto
          28 112 rlineto
          -96 hlineto
          26 106 rlineto
          96 hlineto
          28 112 rlineto
          -96 hlineto
          41 165 7 callgsubr
          -41 -165 rlineto
          -104 hlineto
          41 165 7 callgsubr
          -41 -165 rlineto
          -96 hlineto
          -28 -112 rlineto
          96 hlineto
          -26 -106 rlineto
          -96 hlineto
          -28 -112 rlineto
          96 32 callgsubr
          104 32 callgsubr
          -88 112 rmoveto
          -104 hlineto
          26 106 rlineto
          104 hlineto
          endchar
        </CharString>
        <CharString name="o">
          -48 callsubr
          hstem
          80 197 120 133 vstem
          333 511 rmoveto
          -106 callsubr
          endchar
        </CharString>
        <CharString name="oacute">
          -48 callsubr
          76 -21 hstem
          80 197 120 133 vstem
          333 511 rmoveto
          -106 callsubr
          6 474 -35 callgsubr
          78 -44 callsubr
        </CharString>
        <CharString name="obreve">
          -48 callsubr
          79 112 hstemhm
          80 197 -53 121 52 133 -80 121 hintmask 11110100
          333 511 rmoveto
          -106 callsubr
          hintmask 11101010
          -53 644 -96 callsubr
        </CharString>
        <CharString name="ocircumflex">
          -20 511 64 85 -21 hstemhm
          80 342 -82 128 hintmask 11010000
          200 575 rmoveto
          140 hlineto
          58 64 rlineto
          hintmask 11100000
          24 -64 17 callsubr
          hintmask 11010000
          33 callgsubr
          -35 -239 rmoveto
          hintmask 11100000
          -106 callsubr
          endchar
        </CharString>
        <CharString name="odieresis">
          -48 callsubr
          100 125 hstemhm
          80 197 -57 118 59 133 -106 118 hintmask 11110010
          333 511 rmoveto
          -160 -93 -180 -154 -134 73 -55 124 hvcurveto
          hintmask 11110100
          168 85 180 154 134 -73 55 -124 hvcurveto
          -56 -409 rmoveto
          -42 -22 27 46 104 44 118 76 42 22 -27 -46 -104 -44 -118 -76 hvcurveto
          -49 499 rmoveto
          hintmask 11101010
          -73 callgsubr
          163 -135 rmoveto
          -73 callgsubr
          endchar
        </CharString>
        <CharString name="oe">
          243 -12 119 87 102 96 119 hstem
          88 129 170 135 152 122 vstem
          568 109 rmoveto
          -43 -22 15 25 -6 hvcurveto
          -3 13 1 15 4 17 268 -2 rcurveline
          29 92 13 40 0 37 -3 29 rlinecurve
          75 -8 -51 46 -97 hhcurveto
          -62 -48 -18 -36 -42 hvcurveto
          34 -27 -41 20 -68 hhcurveto
          -177 -62 -122 -139 -35 hvcurveto
          -12 -49 -4 -49 8 -47 rrcurveto
          -70 11 46 -47 102 hhcurveto
          66 48 18 31 42 hvcurveto
          -33 25 47 -16 63 hhcurveto
          97 91 28 0 hvcurveto
          23 102 rlineto
          0 -104 -9 -69 vhcurveto
          -302 -2 rmoveto
          -36 -16 15 25 -6 hvcurveto
          -6 26 5 36 10 41 rrcurveto
          80 19 28 62 70 hhcurveto
          47 16 -22 -41 -26 -4 -24 -6 -22 hvcurveto
          -64 -17 -22 -86 -82 hhcurveto
          256 189 rmoveto
          60 14 28 33 62 hhcurveto
          36 15 -9 -22 4 hvcurveto
          3 -15 -3 -22 -7 -27 rrcurveto
          endchar
        </CharString>
        <CharString name="ogonek">
          -66 11 callsubr
          hstem
          175 144 vstem
          369 -93 rmoveto
          -57 callsubr
          24 51 49 23 14 vhcurveto
          -108 10 rlineto
          -35 -24 -75 -67 -61 -70 callgsubr
          endchar
        </CharString>
        <CharString name="ograve">
          -48 callsubr
          hstem
          80 197 120 133 vstem
          333 511 rmoveto
          -106 callsubr
          14 670 -70 callsubr
          endchar
        </CharString>
        <CharString name="ohungarumlaut">
          -48 callsubr
          hstem
          80 197 120 133 vstem
          333 511 rmoveto
          -106 callsubr
          191 461 -23 callsubr
        </CharString>
        <CharString name="omacron">
          -48 callsubr
          109 116 hstem
          80 197 120 133 vstem
          333 511 rmoveto
          -106 callsubr
          -53 525 -61 callsubr
        </CharString>
        <CharString name="one">
          44 498 162 hstem
          194 37 48 137 vstem
          194 516 rmoveto
          37 -108 163 90 -115 -498 rlineto
          137 hlineto
          152 660 rlineto
          -119 hlineto
          endchar
        </CharString>
        <CharString name="one.dnom">
          -79 -21 312 -20 hstem
          141 135 vstem
          56 137 -77 callsubr
          endchar
        </CharString>
        <CharString name="one.numr">
          399 -21 312 -20 hstem
          246 135 vstem
          161 615 -77 callsubr
          endchar
        </CharString>
        <CharString name="one.pnum">
          -172 14 callgsubr
          hstem
          312 138 vstem
          80 372 rmoveto
          38 -115 143 77 -83 -334 rlineto
          148 hlineto
          124 500 -60 callsubr
          endchar
        </CharString>
        <CharString name="onehalf">
          131 -3 -21 24 95 126 102 176 27 callgsubr
          155 126 -78 116 hintmask 1111111110000000
          -40 callgsubr
          540 -20 rmoveto
          23 95 rlineto
          -94 hlineto
          45 28 rlineto
          hintmask 1111111101000000
          48 29 22 26 11 45 rrcurveto
          71 18 -21 29 -83 hhcurveto
          -45 -75 -9 0 hvcurveto
          -21 -99 rlineto
          0 56 6 22 25 11 -3 -12 -3 vhcurveto
          -4 -15 -15 -15 -41 -27 -88 -59 rcurveline
          -22 -90 rlineto
          endchar
        </CharString>
        <CharString name="oneinferior">
          -79 -21 312 -20 hstem
          150 135 vstem
          65 137 -77 callsubr
          endchar
        </CharString>
        <CharString name="onequarter">
          118 -3 -21 45 -8 callgsubr
          207 27 callgsubr
          138 105 -88 126 hintmask 1111111110100000
          -40 callgsubr
          hintmask 1111111111000000
          414 -20 -98 callsubr
        </CharString>
        <CharString name="onesuperior">
          499 -21 312 -20 hstem
          274 135 vstem
          189 2 callsubr
          endchar
        </CharString>
        <CharString name="ordfeminine">
          -187 434 544 rmoveto
          94 21 -53 21 -94 hhcurveto
          -71 -77 -26 0 hvcurveto
          -14 -75 rlineto
          0 89 7 44 29 11 -5 -10 -1 vhcurveto
          -6 -22 -64 -3 -92 -4 -41 -31 -15 -66 rlinecurve
          -67 -16 28 -43 69 hhcurveto
          47 50 32 0 hvcurveto
          -21 9 11 -12 99 hhcurveto
          21 82 -5 1 -8 4 -3 3 rlinecurve
          -106 55 rmoveto
          -8 -40 rlineto
          0 -29 -16 -20 -21 -8 7 19 3 vhcurveto
          4 18 13 7 22 2 rrcurveto
          endchar
        </CharString>
        <CharString name="ordmasculine">
          -173 321 660 rmoveto
          -108 -66 -43 -122 -30 hvcurveto
          -5 -20 -3 -18 -1 -17 rrcurveto
          -78 -5 50 -48 86 hhcurveto
          119 63 43 137 33 hvcurveto
          7 29 4 34 -8 34 rrcurveto
          50 -12 -68 19 -56 hhcurveto
          -58 -250 rmoveto
          -30 -9 12 27 15 3 15 5 19 hvcurveto
          52 13 19 18 37 hhcurveto
          29 14 -12 -28 -13 -2 -11 -3 -12 hvcurveto
          -64 -18 -20 -18 -38 hhcurveto
          endchar
        </CharString>
        <CharString name="oslash">
          -20 -76 255 77 -21 hstem
          126 150 2 276 vstem
          334 513 23 callsubr
          -73 -114 70 -31 66 108 rlineto
          -7 16 callgsubr
          30 hvcurveto
          71 111 -71 31 -64 -105 rlineto
          8 -25 -28 4 -32 hhcurveto
          -120 -344 rmoveto
          8 vlineto
          104 44 118 76 8 7 -1 -2 6 vhcurveto
          -79 -130 rlineto
          2 -162 rmoveto
          -8 -7 1 1 -6 hvcurveto
          79 129 62 96 rlineto
          -5 vlineto
          -104 -44 -118 -76 vhcurveto
          endchar
        </CharString>
        <CharString name="oslashacute">
          -20 -76 253 79 -21 352 -21 hstem
          126 150 1 277 vstem
          333 511 23 callsubr
          -72 -112 70 -31 65 107 rlineto
          -8 16 callgsubr
          31 hvcurveto
          72 112 -71 31 -65 -106 rlineto
          7 -25 -28 4 -32 hhcurveto
          -55 65 -35 callgsubr
          78 -93 callgsubr
          -55 -515 rmoveto
          7 vlineto
          104 44 118 76 7 7 -1 -2 7 vhcurveto
          -78 -128 rlineto
          1 -164 rmoveto
          -8 -7 1 1 -6 hvcurveto
          80 131 61 95 rlineto
          -6 vlineto
          -104 -44 -118 -76 vhcurveto
          endchar
        </CharString>
        <CharString name="otilde">
          -48 callsubr
          79 6 callgsubr
          80 197 120 133 hintmask 11101100
          333 511 rmoveto
          -106 callsubr
          276 645 -47 callsubr
          hintmask 11011100
          -95 callsubr
          hintmask 11101100
          -79 callgsubr
          endchar
        </CharString>
        <CharString name="p">
          11 -210 -20 219 114 0 -20 315 22 callsubr
          7 132 288 136 vstem
          7 -210 rmoveto
          132 hlineto
          51 220 rlineto
          0 74 -21 47 166 86 184 169 97 -44 73 -101 -66 -61 -64 0 vhcurveto
          10 52 rlineto
          -131 hlineto
          206 -102 rmoveto
          36 15 -28 -36 -91 -41 -140 -75 -38 -58 14 0 hvcurveto
          48 209 rlineto
          0 76 72 37 vhcurveto
          endchar
        </CharString>
        <CharString name="paragraph">
          49 21 -21 594 106 hstem
          142 312 -177 106 -11 107 vstem
          372 hmoveto
          107 hlineto
          142 594 rlineto
          34 hlineto
          25 106 rlineto
          -313 hlineto
          -137 -90 -121 -119 -80 33 -72 106 -2 hvcurveto
          -73 -306 rlineto
          108 hlineto
          142 594 rlineto
          57 hlineto
          endchar
        </CharString>
        <CharString name="parenleft">
          -282 51 35 callgsubr
          287 748 -45 callgsubr
        </CharString>
        <CharString name="parenleft.cap">
          -282 58 35 callgsubr
          294 778 -45 callgsubr
        </CharString>
        <CharString name="parenright">
          -281 -32 35 callsubr
          93 -118 -45 callsubr
        </CharString>
        <CharString name="parenright.cap">
          -280 -24 35 callsubr
          101 -88 -45 callsubr
        </CharString>
        <CharString name="partialdiff">
          44 -9 114 219 114 160 22 callsubr
          109 144 202 144 vstem
          166 564 rmoveto
          0 81 34 73 100 27 -48 -136 8 vhcurveto
          0 -59 24 -68 -140 -79 -80 -142 -152 82 -73 153 182 73 115 241 246 -73 119 -183 -96 -85 -45 0 vhcurveto
          183 -343 rmoveto
          72 38 -22 0 -142 -39 -55 -72 -67 -24 43 68 62 23 46 69 hvcurveto
          endchar
        </CharString>
        <CharString name="percent">
          44 -3 -21 24 80 131 80 119 80 131 80 19 -20 hstemhm
          151 98 0 44 0 98 -60 98 0 44 0 98 hintmask 1111100100100000
          287 -18 callgsubr
          -179 -615 rmoveto
          79 -30 424 714 rlineto
          hintmask 1111011010100000
          -79 30 rlineto
          -381 -164 rmoveto
          hintmask 1111101010100000
          -14 callsubr
          hintmask 1111101001010000
          180 -410 rmoveto
          -85 callsubr
          endchar
        </CharString>
        <CharString name="period">
          -364 43 136 vstem
          8 hmoveto
          -49 callgsubr
          endchar
        </CharString>
        <CharString name="periodcentered">
          -365 207 145 hstemhm
          61 125 -92 135 hintmask 11000000
          56 207 21 callsubr
        </CharString>
        <CharString name="periodcentered.cap">
          -364 247 145 hstemhm
          71 125 -92 135 hintmask 11000000
          66 247 21 callsubr
        </CharString>
        <CharString name="perthousand">
          317 291 -18 callgsubr
          -147 -623 rmoveto
          81 -22 371 721 -80 23 rlineto
          -361 -164 rmoveto
          -14 callsubr
          190 -410 rmoveto
          -85 callsubr
          159 hmoveto
          -85 callsubr
          endchar
        </CharString>
        <CharString name="pi">
          44 -10 114 282 114 12 -20 hstemhm
          138 135 111 134 hintmask 10111000
          384 154 rmoveto
          -134 22 -30 181 vhcurveto
          114 vlineto
          -58 -11 17 33 hvcurveto
          234 vlineto
          50 3 24 11 0 vvcurveto
          110 vlineto
          hintmask 11011000
          0 -52 -12 -57 vhcurveto
          -251 hlineto
          -86 -64 -18 0 hvcurveto
          -109 vlineto
          0 57 13 31 vhcurveto
          -32 -386 rlineto
          135 hlineto
          26 386 rlineto
          85 hlineto
          endchar
        </CharString>
        <CharString name="plus">
          44 191 120 hstemhm
          107 460 -291 120 hintmask 11000000
          107 191 rmoveto
          hintmask 10100000
          169 -170 120 170 hlineto
          hintmask 11000000
          171 120 hlineto
          hintmask 10100000
          -171 168 -120 -168 hlineto
          hintmask 11000000
          -169 hlineto
          endchar
        </CharString>
        <CharString name="plusminus">
          44 19 120 131 23 callgsubr
          268 120 vstem
          99 270 rmoveto
          169 -100 120 100 171 120 -171 108 -120 -108 -169 hlineto
          -251 vmoveto
          -120 460 120 vlineto
          endchar
        </CharString>
        <CharString name="product">
          44 -159 -21 820 23 callgsubr
          178 138 113 138 vstem
          429 -180 rmoveto
          138 820 57 120 -499 -120 53 -820 138 820 113 hlineto
          endchar
        </CharString>
        <CharString name="q">
          10 -189 -21 198 114 -93 -21 409 114 hstemhm
          80 136 75 134 hintmask 10111100
          224 -12 rmoveto
          72 56 65 0 hvcurveto
          -61 -263 rlineto
          -5 callsubr
          158 688 rlineto
          0 -166 33 -85 -162 -90 -177 -172 -108 49 -66 95 vhcurveto
          107 409 rmoveto
          38 59 -14 0 hvcurveto
          -48 -209 rlineto
          hintmask 11011100
          0 -76 -72 -37 -36 -15 28 36 99 45 132 70 vhcurveto
          endchar
        </CharString>
        <CharString name="question">
          -85 21 -21 321 87 164 120 0 0 hstemhm
          -175 32 26 46 61 138 30 136 -120 126 -118 127 71 142 hintmask 1110111001100000
          522 536 rmoveto
          112 -71 44 -113 -70 -90 -27 0 vhcurveto
          -14 -105 rlineto
          0 73 12 70 45 28 -5 -45 -37 -33 -27 -71 -50 vhcurveto
          -56 -40 -32 -36 -6 -34 rrcurveto
          hintmask 1101111010100000
          -8 -41 0 -49 0 vvcurveto
          126 hlineto
          hintmask 1101111001100000
          9 40 5 22 21 26 36 25 rlinecurve
          110 76 41 44 95 vvcurveto
          -402 -536 19 callgsubr
          hintmask 1101111100100000
          38 168 -13 callgsubr
          endchar
        </CharString>
        <CharString name="questiondown">
          -84 -192 0 20 callgsubr
          164 87 300 21 hstemhm
          26 -12 callsubr
          26 -36 -83 callsubr
        </CharString>
        <CharString name="questiondown.cap">
          -138 8 0 20 callgsubr
          164 87 300 21 hstemhm
          44 -12 callsubr
          44 164 -83 callsubr
        </CharString>
        <CharString name="quotedbl">
          -210 32 callsubr
          122 -122 125 -15 115 -90 118 -85 125 hintmask 11100010
          hintmask 11001010
          224 437 rmoveto
          68 251 rlineto
          hintmask 11100010
          -125 hlineto
          -58 -251 rlineto
          hintmask 11100100
          283 hmoveto
          68 251 rlineto
          hintmask 11010001
          -125 hlineto
          hintmask 11100100
          -58 -251 rlineto
          endchar
        </CharString>
        <CharString name="quotedblbase">
          -169 -170 -20 296 -21 hstem
          -119 129 91 129 vstem
          266 85 26 callgsubr
          -320 hmoveto
          -50 callgsubr
          endchar
        </CharString>
        <CharString name="quotedblleft">
          -153 425 -20 296 -21 hstem
          66 129 61 129 vstem
          231 680 26 callgsubr
          90 hmoveto
          -50 callgsubr
          endchar
        </CharString>
        <CharString name="quotedblright">
          -152 446 -21 255 -20 hstem
          232 129 61 -4 callsubr
          290 hmoveto
          24 callsubr
        </CharString>
        <CharString name="quoteleft">
          -342 424 -20 296 -21 hstem
          68 129 vstem
          233 679 26 callgsubr
          endchar
        </CharString>
        <CharString name="quoteright">
          -342 446 -21 255 -20 hstem
          232 -4 callsubr
          endchar
        </CharString>
        <CharString name="quotesinglbase">
          -366 -144 -21 255 -20 hstem
          70 129 vstem
          34 -165 rmoveto
          24 callsubr
        </CharString>
        <CharString name="quotesingle">
          -378 32 callsubr
          125 hintmask 11100000
          hintmask 11010000
          224 437 rmoveto
          68 251 rlineto
          hintmask 11100000
          -125 hlineto
          -58 -251 rlineto
          endchar
        </CharString>
        <CharString name="r">
          -2 callsubr
          hstem
          -6 callgsubr
          vstem
          -83 callgsubr
          endchar
        </CharString>
        <CharString name="racute">
          -2 callsubr
          75 -21 hstem
          -6 callgsubr
          vstem
          -83 callgsubr
          17 76 -35 callgsubr
          78 -44 callsubr
        </CharString>
        <CharString name="radical">
          44 -130 114 456 -20 hstem
          101 320 rmoveto
          54 hlineto
          102 -450 rlineto
          214 hlineto
          200 921 -13 callgsubr
          -163 -807 rlineto
          -13 hlineto
          -92 456 rlineto
          -166 hlineto
          endchar
        </CharString>
        <CharString name="rcaron">
          -2 callsubr
          84 -27 callgsubr
          hstemhm
          -6 callgsubr
          -20 152 15 167 hintmask 11111010
          -83 callgsubr
          166 75 -75 callgsubr
          hintmask 11110110
          -30 callgsubr
          endchar
        </CharString>
        <CharString name="rcommaaccent">
          -2 callsubr
          hstemhm
          53 123 -121 134 hintmask 11010000
          -83 callgsubr
          hintmask 11100000
          -117 -572 -80 callsubr
          endchar
        </CharString>
        <CharString name="registered">
          125 150 60 159 71 79 72 67 60 hstem
          145 62 93 95 62 93 84 62 vstem
          38 callgsubr
          158 169 43 callsubr
          -169 -159 37 callsubr
          92 102 121 41 callgsubr
          -124 -119 -94 102 122 vhcurveto
          246 -158 rmoveto
          100 hlineto
          -41 110 rlineto
          29 24 9 24 52 vvcurveto
          76 -49 29 -65 vhcurveto
          -136 -315 96 93 29 hlineto
          -30 150 rmoveto
          27 hlineto
          24 11 -16 -24 -23 -12 -16 -22 hvcurveto
          -28 hlineto
          endchar
        </CharString>
        <CharString name="ring">
          275 527 79 57 90 hstem
          302 72 58 71 vstem
          302 636 -91 callsubr
          endchar
        </CharString>
        <CharString name="ring.cap">
          -178 452 717 -60 callgsubr
          endchar
        </CharString>
        <CharString name="s">
          -51 callsubr
          hstemhm
          106 134 67 137 hintmask 11101100
          494 480 rmoveto
          hintmask 11011100
          -102 callsubr
          hintmask 11101100
          14 callsubr
          endchar
        </CharString>
        <CharString name="sacute">
          -51 callsubr
          76 -21 hstemhm
          106 134 67 137 hintmask 11101110
          494 480 rmoveto
          hintmask 11011110
          -102 callsubr
          hintmask 11101110
          14 callsubr
          -214 195 -35 callgsubr
          78 -44 callsubr
        </CharString>
        <CharString name="scaron">
          -51 callsubr
          85 -27 callgsubr
          hstemhm
          106 134 -20 152 -65 137 -57 167 hintmask 1110111010000000
          494 480 rmoveto
          hintmask 1101111010000000
          -102 callsubr
          hintmask 1110110101000000
          14 callsubr
          -83 194 -75 callgsubr
          -30 callgsubr
          endchar
        </CharString>
        <CharString name="scedilla">
          -82 0 callgsubr
          21 114 -97 -20 204 112 80 99 -83 114 hstemhm
          107 134 -61 55 -24 105 -8 137 hintmask 1101110001000000
          316 -124 rmoveto
          -41 callgsubr
          hintmask 1110101100100000
          6 21 rlineto
          126 2 92 60 128 vvcurveto
          77 -48 19 -85 27 vhcurveto
          -54 17 -17 8 22 vvcurveto
          27 21 22 41 vhcurveto
          hintmask 1101110100100000
          14 callsubr
          24 99 rlineto
          hintmask 1101101100100000
          0 -74 31 -106 -108 -100 -68 -130 -72 54 -28 85 -24 vhcurveto
          42 -12 20 -8 -18 vvcurveto
          hintmask 1110110010100000
          -28 -18 -21 -55 -67 -96 18 0 vhcurveto
          -25 -98 rlineto
          0 54 -24 75 -8 vhcurveto
          -18 -84 rlineto
          22 hlineto
          hintmask 1101110001000000
          -95 callgsubr
          endchar
        </CharString>
        <CharString name="scircumflex">
          -51 callsubr
          85 -27 callgsubr
          hstemhm
          106 134 -62 130 -1 137 -78 146 hintmask 1110111010000000
          494 480 rmoveto
          hintmask 1101111010000000
          -102 callsubr
          hintmask 1110110101000000
          14 callsubr
          -292 194 -90 callgsubr
        </CharString>
        <CharString name="scommaaccent">
          -51 callsubr
          hstemhm
          106 134 -85 123 29 137 hintmask 11101010
          494 480 rmoveto
          hintmask 11011010
          -102 callsubr
          hintmask 11100110
          14 callsubr
          -315 -453 -80 callsubr
          endchar
        </CharString>
        <CharString name="section">
          -29 -188 119 587 119 hstem
          154 129 90 139 vstem
          568 613 rmoveto
          0 -93 24 -66 -174 -81 -129 -80 -19 0 -45 20 -18 vhcurveto
          -35 -26 -61 -54 -84 vvcurveto
          -60 31 -38 86 -27 vhcurveto
          92 -29 24 3 -40 vvcurveto
          -37 -43 -23 -64 -51 -99 14 0 vhcurveto
          -38 -111 rlineto
          0 104 -22 66 231 25 173 61 17 -2 16 -15 24 vhcurveto
          35 40 52 59 64 vvcurveto
          40 -16 63 -100 24 vhcurveto
          -54 13 -59 8 41 vvcurveto
          39 38 24 69 44 104 -16 0 vhcurveto
          -228 -219 rmoveto
          44 -12 19 -11 -24 vvcurveto
          -26 -22 -45 -14 -14 vhcurveto
          -20 9 -25 8 -31 12 rrcurveto
          -26 10 -20 5 21 vvcurveto
          28 24 45 10 12 vhcurveto
          7 -4 30 -8 24 -6 rrcurveto
          endchar
        </CharString>
        <CharString name="semicolon">
          -341 -109 -21 283 -20 hstemhm
          94 134 -98 136 hintmask 11100000
          -54 -130 rmoveto
          117 283 rlineto
          147 hlineto
          -153 -283 rlineto
          38 426 19 callgsubr
          hintmask 11010000
          35 153 -13 callgsubr
          endchar
        </CharString>
        <CharString name="seven">
          44 542 118 hstem
          464 132 vstem
          197 542 rmoveto
          275 hlineto
          -8 -41 -347 -483 125 -36 354 505 40 173 rlineto
          -412 hlineto
          endchar
        </CharString>
        <CharString name="seven.dnom">
          -89 -21 217 105 hstem
          145 132 vstem
          49 107 -71 callsubr
        </CharString>
        <CharString name="seven.numr">
          389 -21 217 105 hstem
          262 132 vstem
          166 585 -71 callsubr
        </CharString>
        <CharString name="seven.pnum">
          -105 -4 -21 402 124 hstem
          88 377 rmoveto
          255 hlineto
          -9 -33 -261 -306 112 -63 298 359 41 167 rlineto
          -404 hlineto
          endchar
        </CharString>
        <CharString name="seveninferior">
          -89 -21 217 105 hstem
          146 132 vstem
          50 107 -71 callsubr
        </CharString>
        <CharString name="sevensuperior">
          489 -21 217 105 hstem
          279 132 vstem
          183 685 -71 callsubr
        </CharString>
        <CharString name="six">
          44 -12 118 0 -20 221 118 129 118 hstem
          99 141 202 141 vstem
          640 650 rmoveto
          0 -94 22 -74 -239 -134 -252 -197 -163 85 -72 128 177 94 109 154 109 -52 65 -129 -55 -80 -35 0 vhcurveto
          101 36 51 63 86 hhcurveto
          79 78 -15 0 hvcurveto
          -236 -232 rmoveto
          47 34 -15 -54 -86 -42 -46 -79 -61 -20 61 52 24 5 23 4 17 hvcurveto
          0 48 24 64 vhcurveto
          endchar
        </CharString>
        <CharString name="six.dnom">
          -111 9 callsubr
          23 100 32 108 vstem
          305 211 -101 callgsubr
        </CharString>
        <CharString name="six.numr">
          367 9 callsubr
          134 100 32 108 vstem
          416 689 -101 callgsubr
        </CharString>
        <CharString name="six.pnum">
          -54 -10 109 219 -20 92 121 hstem
          52 133 179 135 vstem
          551 482 rmoveto
          0 -109 29 -74 -194 -122 -151 -197 -99 54 -74 129 190 74 85 119 80 -44 44 -123 -46 -41 -11 -15 -31 vhcurveto
          71 19 37 27 86 hhcurveto
          80 76 -15 0 hvcurveto
          -220 -167 rmoveto
          52 20 -12 -25 -40 -26 -32 -74 -72 -7 43 27 6 1 6 1 4 hvcurveto
          0 46 23 59 vhcurveto
          endchar
        </CharString>
        <CharString name="sixinferior">
          -111 9 callsubr
          26 100 32 108 vstem
          308 211 -101 callgsubr
        </CharString>
        <CharString name="sixsuperior">
          467 9 callsubr
          160 100 32 108 vstem
          442 789 -101 callgsubr
        </CharString>
        <CharString name="slash">
          -48 -3 -21 742 -20 hstem
          37 126 305 126 vstem
          163 -24 -36 callgsubr
          endchar
        </CharString>
        <CharString name="space">
          -296 endchar
        </CharString>
        <CharString name="sterling">
          44 624 654 rmoveto
          0 -93 25 -50 -117 -48 -56 -144 -36 vhcurveto
          -9 -36 rlineto
          -79 hlineto
          -27 -114 rlineto
          80 hlineto
          -49 -215 rlineto
          -95 hlineto
          -26 -114 rlineto
          340 hlineto
          74 17 3 115 -68 -18 rlineto
          -92 hlineto
          50 215 rlineto
          156 hlineto
          27 114 rlineto
          -157 hlineto
          5 20 rlineto
          60 15 11 38 51 hhcurveto
          40 63 -8 0 hvcurveto
          endchar
        </CharString>
        <CharString name="summation">
          44 -180 120 700 23 callgsubr
          334 298 rmoveto
          -238 -339 rlineto
          -139 500 120 -354 15 vlineto
          215 296 rlineto
          93 vlineto
          -215 281 rlineto
          15 354 120 -500 -140 vlineto
          endchar
        </CharString>
        <CharString name="t">
          26 callsubr
          396 386 -89 callsubr
          endchar
        </CharString>
        <CharString name="tbar">
          -184 -12 114 98 116 70 114 128 -20 hstem
          398 386 rmoveto
          0 callsubr
          -105 hlineto
          29 128 -64 callsubr
          -29 -128 rlineto
          -51 hlineto
          -30 -114 rlineto
          54 hlineto
          -17 -70 rlineto
          -52 hlineto
          -25 -116 rlineto
          50 -2 hlineto
          -8 -33 -7 -38 -31 vvcurveto
          -59 38 -49 75 59 53 23 0 vhcurveto
          11 96 rlineto
          0 -42 -5 -26 -21 -8 9 19 14 4 25 4 17 vhcurveto
          3 14 rlineto
          93 hlineto
          25 116 rlineto
          -91 hlineto
          16 70 rlineto
          endchar
        </CharString>
        <CharString name="tcaron">
          -52 -12 114 284 114 -50 -21 199 -20 72 -20 hstemhm
          509 122 hintmask 10111100
          631 -36 callsubr
          hintmask 11011100
          -175 -43 -89 callsubr
          endchar
        </CharString>
        <CharString name="tcedilla">
          -187 0 callgsubr
          21 114 -97 -20 401 114 128 -20 hstemhm
          168 52 -21 105 hintmask 11011101
          304 -124 rmoveto
          -41 callgsubr
          hintmask 11101110
          6 21 rlineto
          58 1 51 22 0 vvcurveto
          11 96 rlineto
          0 -42 -5 -26 -21 -8 9 19 14 4 25 4 17 vhcurveto
          46 200 rlineto
          104 hlineto
          0 callsubr
          -105 hlineto
          29 128 -64 callsubr
          -29 -128 rlineto
          -51 hlineto
          -30 -114 rlineto
          54 hlineto
          -44 -188 rlineto
          -8 -33 -7 -38 -31 vvcurveto
          -46 22 -39 45 -15 vhcurveto
          -20 -90 rlineto
          22 hlineto
          hintmask 11011101
          -95 callgsubr
          endchar
        </CharString>
        <CharString name="tcommaaccent">
          26 callsubr
          112 123 vstem
          396 386 -89 callsubr
          -180 -458 -80 callsubr
          endchar
        </CharString>
        <CharString name="thorn">
          -21 -187 -21 196 119 281 123 187 -20 hstem
          218 126 50 129 vstem
          394 511 rmoveto
          -51 -49 -41 -1 -3 hvcurveto
          53 229 rlineto
          -126 hlineto
          -214 -906 rlineto
          126 hlineto
          47 201 rlineto
          -2 36 -3 35 141 78 62 205 56 vhcurveto
          109 30 -4 147 -155 hhcurveto
          -132 -161 rmoveto
          -2 55 40 32 67 -9 -83 -50 -13 vhcurveto
          -89 -23 -36 -59 -62 hhcurveto
          -67 6 rlineto
          endchar
        </CharString>
        <CharString name="three">
          44 -12 118 166 110 168 -21 25 118 hstemhm
          402 141 -84 141 hintmask 11110100
          198 541 rmoveto
          0 93 13 78 63 27 -22 -40 -59 -66 -49 -49 -2 vhcurveto
          -129 -6 -25 -102 126 -2 rlineto
          hintmask 11111000
          66 -1 20 -16 -38 vvcurveto
          -73 -62 -38 -69 -69 -114 12 0 vhcurveto
          -29 -94 rlineto
          0 102 -36 98 171 113 95 140 71 -17 26 -46 27 vhcurveto
          hintmask 11110100
          88 45 32 45 92 vvcurveto
          100 -63 43 -136 -100 -89 -41 0 vhcurveto
          endchar
        </CharString>
        <CharString name="three.dnom">
          -111 39 callgsubr
          hstem
          147 107 vstem
          75 214 -104 callgsubr
          endchar
        </CharString>
        <CharString name="three.numr">
          367 39 callgsubr
          hstem
          261 107 vstem
          189 692 -104 callgsubr
          endchar
        </CharString>
        <CharString name="three.pnum">
          -89 -9 129 70 120 71 129 hstemhm
          326 137 -102 144 hintmask 11101000
          127 485 rmoveto
          -16 -116 rlineto
          0 102 12 76 56 16 -8 -20 -32 -32 -11 -52 vhcurveto
          -128 hlineto
          -30 -120 rlineto
          128 hlineto
          hintmask 11110000
          53 26 -8 -18 -36 -46 -8 -58 -66 -112 11 0 hvcurveto
          -42 -117 rlineto
          0 110 -23 93 192 66 102 92 32 -20 30 -46 13 vhcurveto
          hintmask 11101000
          45 10 63 35 96 vvcurveto
          48 -32 61 -151 -80 -115 -25 0 vhcurveto
          endchar
        </CharString>
        <CharString name="threeinferior">
          -111 39 callgsubr
          hstem
          146 107 vstem
          74 214 -104 callgsubr
          endchar
        </CharString>
        <CharString name="threequarters">
          115 -3 -21 45 -8 callgsubr
          175 39 callgsubr
          -83 -20 hstemhm
          99 126 38 107 143 105 -88 126 hintmask 1111111011010000
          191 792 -104 callgsubr
          34 -816 rmoveto
          431 698 rlineto
          hintmask 1111110111010000
          -126 44 -431 -698 rlineto
          hintmask 1111111011100000
          414 -20 -98 callsubr
        </CharString>
        <CharString name="threesuperior">
          467 39 callgsubr
          hstem
          283 107 vstem
          211 792 -104 callgsubr
          endchar
        </CharString>
        <CharString name="tilde">
          -70 590 6 callgsubr
          hintmask 10000000
          528 747 -47 callsubr
          hintmask 01000000
          -95 callsubr
          hintmask 10000000
          -79 callgsubr
          endchar
        </CharString>
        <CharString name="tilde.cap">
          -60 592 936 -88 callgsubr
          endchar
        </CharString>
        <CharString name="trademark">
          173 352 -21 22 -21 233 79 hstemhm
          285 88 66 82 127 82 hintmask 01111100
          214 565 rmoveto
          71 -233 88 233 41 79 -200 hlineto
          hintmask 10111100
          225 -313 rmoveto
          82 174 hlineto
          38 -153 rlineto
          55 hlineto
          34 153 rlineto
          -174 82 313 -102 vlineto
          -45 -158 -41 158 rlineto
          -103 hlineto
          endchar
        </CharString>
        <CharString name="two">
          44 0 118 436 118 hstem
          461 141 vstem
          488 hmoveto
          29 118 rlineto
          -267 hlineto
          182 138 rlineto
          105 80 65 64 119 vvcurveto
          106 -62 47 -136 -85 -96 -33 0 vhcurveto
          -18 -100 rlineto
          0 90 15 68 77 21 -18 -51 -46 -55 -53 -117 -101 vhcurveto
          -199 -173 -27 -112 rlineto
          endchar
        </CharString>
        <CharString name="two.dnom">
          -100 95 126 102 hstem
          171 116 vstem
          232 -100 -92 callgsubr
        </CharString>
        <CharString name="two.numr">
          378 95 126 102 hstem
          278 116 vstem
          339 378 -92 callgsubr
        </CharString>
        <CharString name="two.pnum">
          -94 21 -21 378 131 hstem
          325 164 vstem
          417 hmoveto
          32 129 rlineto
          -189 hlineto
          100 69 rlineto
          79 54 50 45 90 vvcurveto
          60 -42 62 -125 -93 -106 -26 0 vhcurveto
          -22 -120 rlineto
          1 86 14 68 55 15 -9 -16 -30 -112 -80 -74 -49 vhcurveto
          -106 -71 -30 -123 rlineto
          endchar
        </CharString>
        <CharString name="twoinferior">
          -100 95 126 102 hstem
          166 116 vstem
          227 -100 -92 callgsubr
        </CharString>
        <CharString name="twosuperior">
          478 95 126 102 hstem
          303 116 vstem
          364 478 -92 callgsubr
        </CharString>
        <CharString name="u">
          -15 callgsubr
          10 callsubr
          hintmask 10111000
          439 500 rmoveto
          -19 callsubr
          -97 callsubr
          hintmask 01111000
          -72 callsubr
          hintmask 10111000
          -80 callgsubr
          endchar
        </CharString>
        <CharString name="uacute">
          -15 callgsubr
          107 -21 10 callsubr
          hintmask 10111100
          439 500 rmoveto
          -19 callsubr
          -97 callsubr
          hintmask 01111100
          -72 callsubr
          hintmask 10111100
          -80 callgsubr
          -286 76 -35 callgsubr
          78 -44 callsubr
        </CharString>
        <CharString name="ubreve">
          -15 callgsubr
          110 112 hstemhm
          87 139 15 121 -32 128 9 121 hintmask 10111101
          439 500 rmoveto
          -19 callsubr
          -97 callsubr
          hintmask 01111011
          -72 callsubr
          hintmask 10111011
          -80 callgsubr
          hintmask 10111101
          -332 246 -96 callsubr
        </CharString>
        <CharString name="ucircumflex">
          -3 125 -21 161 374 -64 -20 hstemhm
          244 54 64 57 hintmask 10111000
          197 575 rmoveto
          140 hlineto
          hintmask 11011000
          58 64 rlineto
          hintmask 10111000
          24 -64 17 callsubr
          33 callgsubr
          74 -250 rmoveto
          -19 callsubr
          -13 callsubr
          -12 callgsubr
          vhcurveto
          hintmask 11011000
          -28 callgsubr
          vhcurveto
          -44 callgsubr
        </CharString>
        <CharString name="udieresis">
          -3 162 574 -551 -21 437 -20 hstemhm
          226 18 3 192 hintmask 01111000
          216 601 rmoveto
          120 hlineto
          hintmask 10011000
          -71 callgsubr
          hintmask 01111000
          173 -135 rmoveto
          120 hlineto
          hintmask 10011000
          -71 callgsubr
          hintmask 01111000
          -12 -236 -67 callsubr
        </CharString>
        <CharString name="ugrave">
          -3 255 407 -141 -21 182 -20 hstemhm
          87 0 157 51 hintmask 10011000
          hintmask 01111000
          295 -9 callsubr
          -77 -182 rmoveto
          -19 callsubr
          -13 callsubr
          -12 callgsubr
          -28 callgsubr
          vhcurveto
          54 235 -64 callsubr
          hintmask 10011000
          -7 callgsubr
          -7 -29 -14 -64 -33 vvcurveto
          -72 callsubr
          -6 -49 rlineto
          128 hlineto
          hintmask 01111000
          -76 callgsubr
          endchar
        </CharString>
        <CharString name="uhungarumlaut">
          -3 162 656 -633 -21 399 -20 hstemhm
          226 18 167 28 hintmask 01111000
          492 563 rmoveto
          164 188 rlineto
          hintmask 10011000
          -89 67 -156 -190 rlineto
          hintmask 01111000
          -113 -65 rmoveto
          164 188 -89 66 -155 -189 rlineto
          221 -128 -67 callsubr
        </CharString>
        <CharString name="umacron">
          -15 callgsubr
          140 116 10 callsubr
          hintmask 10111100
          439 500 rmoveto
          -19 callsubr
          -97 callsubr
          hintmask 01111100
          -72 callsubr
          hintmask 10111100
          -80 callgsubr
          -343 127 -61 callsubr
        </CharString>
        <CharString name="underscore">
          -38 -205 125 hstem
          -4 -80 rmoveto
          -28 -125 rlineto
          448 hlineto
          28 125 rlineto
          endchar
        </CharString>
        <CharString name="uni00A0">
          -296 endchar
        </CharString>
        <CharString name="uni1EAB">
          -57 callgsubr
          54 37 callgsubr
          80 136 20 39 callsubr
          hintmask 1111101110000000
          221 -12 -107 callgsubr
          290 509 -47 callsubr
          hintmask 1111011110000000
          -95 callsubr
          hintmask 1111101110000000
          -79 callgsubr
          -396 -269 -90 callgsubr
        </CharString>
        <CharString name="uni1EB0">
          36 callgsubr
          453 -390 105 216 -21 hstemhm
          13 138 165 122 169 56 hintmask 0110111110000000
          hintmask 0111001110000000
          442 1133 -70 callsubr
          -650 -1043 rmoveto
          -77 callgsubr
          hintmask 1000111110000000
          -48 callgsubr
          -85 callgsubr
          60 649 rmoveto
          hintmask 1001001110000000
          -94 callgsubr
          endchar
        </CharString>
        <CharString name="uni1EC5">
          -65 callsubr
          31 callgsubr
          81 134 -11 130 14 7 37 146 -140 132 hintmask 1111110101010000
          603 907 -47 callsubr
          hintmask 1111101101010000
          -95 callsubr
          hintmask 1111110101010000
          -79 callgsubr
          -319 -712 -106 callgsubr
          hintmask 1111110011100000
          -70 251 -90 callgsubr
        </CharString>
        <CharString name="uni1ED7">
          -48 callsubr
          31 callgsubr
          80 197 -75 39 callsubr
          -139 133 hintmask 1111101001000000
          333 511 rmoveto
          -106 callsubr
          320 805 -47 callsubr
          hintmask 1111011001000000
          -95 callsubr
          hintmask 1111100110000000
          -79 callgsubr
          -399 -269 -90 callgsubr
        </CharString>
        <CharString name="uni1EF8">
          -12 21 -21 781 6 callgsubr
          158 140 -113 128 202 146 hintmask 11001100
          612 938 -47 callsubr
          hintmask 10101100
          -95 callsubr
          hintmask 11010100
          -79 callgsubr
          45 -165 1 callsubr
          hintmask 11001100
          -61 callgsubr
        </CharString>
        <CharString name="uni1EF9">
          -16 callsubr
          110 6 callgsubr
          122 135 hintmask 11110100
          548 747 -47 callsubr
          hintmask 11101100
          -95 callsubr
          hintmask 11110100
          -79 callgsubr
          -426 -154 -94 callsubr
          endchar
        </CharString>
        <CharString name="uogonek">
          -3 -214 118 96 104 -95 -21 27 -20 505 -20 hstemhm
          87 139 13 144 -53 128 hintmask 10011110
          439 500 rmoveto
          -19 callsubr
          hintmask 11001110
          -97 callsubr
          hintmask 10101101
          -72 callsubr
          -6 -48 rlineto
          hintmask 10011110
          -38 -30 -53 -56 -52 -67 callgsubr
          vhcurveto
          hintmask 11001101
          24 49 44 26 14 vhcurveto
          -76 callgsubr
          endchar
        </CharString>
        <CharString name="uring">
          -15 callgsubr
          47 79 57 90 hstemhm
          87 139 73 72 -41 128 -29 71 hintmask 1011111010000000
          299 636 -91 callsubr
          68 -136 rmoveto
          -19 callsubr
          -97 callsubr
          hintmask 0111111010000000
          -72 callsubr
          hintmask 1011110100000000
          -80 callgsubr
          endchar
        </CharString>
        <CharString name="utilde">
          -15 callgsubr
          110 118 -74 117 10 callsubr
          hintmask 10110110
          559 747 -47 callsubr
          hintmask 10101110
          -95 callsubr
          hintmask 10110110
          -79 callgsubr
          -124 -154 rmoveto
          -19 callsubr
          -97 callsubr
          hintmask 01110110
          -72 callsubr
          hintmask 10110110
          -80 callgsubr
          endchar
        </CharString>
        <CharString name="v">
          -53 0 111 389 -20 hstem
          122 4 206 235 vstem
          126 500 rmoveto
          -4 -500 rlineto
          210 hlineto
          235 500 rlineto
          -135 hlineto
          -171 -389 rlineto
          -18 hlineto
          14 389 rlineto
          endchar
        </CharString>
        <CharString name="w">
          -2 callgsubr
          hstem
          135 190 107 427 vstem
          135 500 -92 callsubr
          endchar
        </CharString>
        <CharString name="wacute">
          -2 callgsubr
          107 -21 hstem
          135 190 107 427 vstem
          135 500 -92 callsubr
          130 76 -35 callgsubr
          78 -44 callsubr
        </CharString>
        <CharString name="wcircumflex">
          -2 callgsubr
          116 -27 callgsubr
          hstemhm
          135 190 14 130 -37 427 -332 146 hintmask 11111010
          135 500 -92 callsubr
          hintmask 11111101
          69 75 -90 callgsubr
        </CharString>
        <CharString name="wdieresis">
          -2 callgsubr
          131 125 hstemhm
          135 190 23 118 -34 427 -307 118 hintmask 11110100
          135 500 rmoveto
          -29 -500 rlineto
          219 hlineto
          126 311 -19 -311 rlineto
          223 hlineto
          204 500 rlineto
          -135 hlineto
          -149 -386 rlineto
          hintmask 11111010
          -23 hlineto
          20 376 rlineto
          -152 hlineto
          -159 -376 rlineto
          -23 hlineto
          32 386 rlineto
          86 101 -21 callsubr
        </CharString>
        <CharString name="wgrave">
          246 0 0 682 -20 hstem
          135 190 15 285 vstem
          404 -9 callsubr
          -490 -182 -92 callsubr
          endchar
        </CharString>
        <CharString name="x">
          -86 124 500 rmoveto
          78 -250 -196 -250 rlineto
          139 hlineto
          102 147 39 -147 rlineto
          136 hlineto
          -80 240 197 260 -13 callgsubr
          -104 -153 -39 153 rlineto
          endchar
        </CharString>
        <CharString name="y">
          -16 callsubr
          hstem
          122 135 vstem
          -41 callsubr
          endchar
        </CharString>
        <CharString name="yacute">
          -16 callsubr
          107 -21 hstem
          122 135 vstem
          -41 callsubr
          16 76 -35 callgsubr
          78 -44 callsubr
        </CharString>
        <CharString name="ycircumflex">
          -16 callsubr
          116 -27 callgsubr
          hstemhm
          122 135 -73 39 callsubr
          hintmask 11111101
          -41 callsubr
          hintmask 11111011
          -73 75 -90 callgsubr
        </CharString>
        <CharString name="ydieresis">
          -52 601 -20 155 -20 41 -21 hstem
          122 196 vstem
          198 601 -63 callgsubr
          173 -135 -63 callgsubr
          -307 -236 -94 callsubr
          endchar
        </CharString>
        <CharString name="yen">
          44 21 -21 125 118 33 118 266 -20 hstem
          139 276 rmoveto
          139 hlineto
          3 -11 -5 -22 rlineto
          -145 hlineto
          -28 -118 rlineto
          146 hlineto
          -30 -125 rlineto
          137 hlineto
          29 125 rlineto
          140 hlineto
          27 118 rlineto
          -140 hlineto
          6 22 9 11 17 callsubr
          28 118 rlineto
          -71 hlineto
          214 266 rlineto
          -178 hlineto
          -178 -231 -98 231 rlineto
          -149 hlineto
          108 -266 rlineto
          -70 hlineto
          endchar
        </CharString>
        <CharString name="ygrave">
          -52 -210 -20 912 -20 131 -21 hstem
          421 146 vstem
          256 -9 callsubr
          -351 -182 -94 callsubr
          endchar
        </CharString>
        <CharString name="z">
          -102 0 114 272 22 callsubr
          122 386 -38 callsubr
        </CharString>
        <CharString name="zacute">
          -102 0 114 272 114 87 -21 -43 callgsubr
          116 190 -35 callgsubr
          78 -44 callsubr
        </CharString>
        <CharString name="zcaron">
          -102 0 114 272 114 96 -27 callgsubr
          hstem
          210 152 15 167 vstem
          377 575 -75 callgsubr
          -30 callgsubr
          -170 -189 -38 callsubr
        </CharString>
        <CharString name="zdotaccent">
          -102 0 114 272 114 -43 callgsubr
          154 196 -52 callsubr
        </CharString>
        <CharString name="zero">
          44 -12 118 -97 -21 566 118 hstem
          95 141 240 141 vstem
          401 672 rmoveto
          -174 -132 -185 -287 -134 62 -78 154 174 132 185 287 134 -62 78 -154 hvcurveto
          -3 -118 rmoveto
          62 16 -38 -76 -137 -61 -197 -102 -61 -16 38 74 139 61 197 101 hvcurveto
          endchar
        </CharString>
        <CharString name="zero.dnom">
          -111 95 144 95 hstem
          25 34 callsubr
          196 223 -100 callsubr
        </CharString>
        <CharString name="zero.numr">
          367 95 144 95 hstem
          132 34 callsubr
          303 701 -100 callsubr
        </CharString>
        <CharString name="zero.pnum">
          -12 -8 126 264 127 hstem
          49 151 215 153 vstem
          371 509 rmoveto
          -65 -57 -15 -29 -46 hvcurveto
          -102 -65 -52 -125 -119 vvcurveto
          -112 78 -52 112 79 65 20 34 49 vhcurveto
          95 66 41 116 100 vvcurveto
          128 -67 53 -130 vhcurveto
          -29 -127 rmoveto
          45 28 -24 -57 -13 -8 -170 -135 -45 -27 28 41 88 47 107 95 hvcurveto
          endchar
        </CharString>
        <CharString name="zero.slash">
          44 -102 -21 111 127 -106 -21 557 127 127 -20 hstemhm
          30 81 -24 149 240 150 -15 84 hintmask 1011101010000000
          411 672 rmoveto
          -174 -150 -167 -297 -58 16 -49 29 -37 hvcurveto
          hintmask 1101110100000000
          -102 -157 81 -30 87 133 rlineto
          -14 29 34 -8 37 hhcurveto
          239 89 240 230 61 -14 47 -27 34 hvcurveto
          hintmask 1101101010000000
          110 167 -84 32 -95 -146 rlineto
          12 -30 -35 7 -40 hhcurveto
          -14 -127 rmoveto
          16 15 -3 -7 11 hvcurveto
          -203 -312 rlineto
          155 51 167 110 vhcurveto
          -84 -430 rmoveto
          -15 -13 4 7 -11 hvcurveto
          hintmask 1101110100000000
          202 307 rlineto
          -136 -1 -51 -182 -111 hhcurveto
          endchar
        </CharString>
        <CharString name="zeroinferior">
          -11 95 144 95 hstem
          47 34 callsubr
          218 323 -100 callsubr
        </CharString>
        <CharString name="zerosuperior">
          467 95 144 95 hstem
          157 34 callsubr
          328 801 -100 callsubr
        </CharString>
      <CharString index="0">
        rmoveto
        -29 callgsubr
        40 callsubr
        -53 callsubr
        75 323 rlineto
        0 -177 33 -73 -182 -72 -206 -136 -104 39 -78 102 vhcurveto
        117 410 -101 callsubr
        return
      </CharString>
      <CharString index="1">
        rmoveto
        -69 callsubr
        hvcurveto
        35 hlineto
        -47 callgsubr
        -7 callsubr
        -195 -79 -172 -181 -117 54 -53 115 96 93 28 0 hvcurveto
        15 99 rlineto
        0 -98 -13 -68 vhcurveto
        -55 192 rmoveto
        72 17 39 37 59 hhcurveto
        32 18 -11 -32 -47 -30 -19 -94 hvcurveto
        return
      </CharString>
      <CharString index="2">
        -84 callsubr
        -103 callgsubr
        return
      </CharString>
      <CharString index="3">
        rmoveto
        -17 -91 rlineto
        0 49 5 37 16 10 -3 -12 -3 vhcurveto
        -10 -3 -8 -4 -13 hhcurveto
        -64 hlineto
        -21 -85 rlineto
        66 hlineto
        18 8 -2 -12 -3 hvcurveto
        -12 -3 -9 -4 -21 hhcurveto
        -33 -60 6 0 hvcurveto
        -29 -93 rlineto
        0 70 -8 49 73 53 33 69 17 vhcurveto
        11 43 -7 20 -20 10 21 11 17 25 8 34 rrcurveto
        61 15 -34 28 -80 hhcurveto
        -40 -70 -9 0 hvcurveto
        return
      </CharString>
      <CharString index="4">
        -102 callgsubr
        -87 callsubr
        return
      </CharString>
      <CharString index="5">
        -23 -23 -30 -11 -31 hhcurveto
        -24 -120 rmoveto
        21 callgsubr
        147 -86 61 -135 -75 -65 -23 -44 -51 vhcurveto
        return
      </CharString>
      <CharString index="6">
        rmoveto
        0 -65 12 -36 -106 -47 -67 -112 -28 vhcurveto
        -97 -25 25 -58 92 hhcurveto
        75 52 35 80 21 hvcurveto
        69 17 -24 36 -71 hhcurveto
        -10 -15 -2 -3 -14 hvcurveto
        13 3 10 13 26 hhcurveto
        28 65 -6 0 hvcurveto
        -134 -101 rmoveto
        10 5 -7 -14 -4 hvcurveto
        -13 -3 -9 -8 -10 hhcurveto
        -11 -3 15 19 4 hvcurveto
        0 9 8 12 vhcurveto
        endchar
      </CharString>
      <CharString index="7">
        0 57 -14 48 101 43 54 115 29 vhcurveto
        107 27 -24 58 -93 hhcurveto
        -75 -54 -42 -74 -19 hvcurveto
        -69 -17 25 -35 68 hhcurveto
        17 20 5 -1 -1 hvcurveto
        -10 -2 -9 -13 -27 hhcurveto
        -38 -48 6 0 hvcurveto
        130 95 rmoveto
        -8 -6 8 14 3 hvcurveto
        14 4 8 9 10 hhcurveto
        12 4 -12 -27 -7 hvcurveto
        0 -12 -6 -8 vhcurveto
        endchar
      </CharString>
      <CharString index="8">
        0 -100 38 -109 -143 -88 -97 -126 13 callgsubr
        vhcurveto
        88 -40 13 -12 -38 vvcurveto
        -75 -44 -24 -75 -70 -113 20 0 vhcurveto
        -23 -99 rlineto
        0 102 -41 106 154 103 81 154 89 -24 37 -112 50 vhcurveto
        -82 37 -11 12 37 vvcurveto
        53 35 36 60 70 110 -18 0 vhcurveto
        return
      </CharString>
      <CharString index="9">
        vstem
        484 121 rmoveto
        0 -84 -13 -78 -57 -24 32 55 190 74 187 129 82 62 -12 0 vhcurveto
        32 102 rlineto
        0 -89 30 -82 -259 -91 -296 -211 -126 66 -71 139 76 93 26 0 vhcurveto
        return
      </CharString>
      <CharString index="10">
        rmoveto
        -290 -175 -126 -330 -79 hvcurveto
        -243 -58 114 -235 319 hhcurveto
        45 97 10 0 hvcurveto
        26 111 rlineto
        0 -99 -9 -38 -268 -58 179 187 44 vhcurveto
        215 51 117 129 232 hhcurveto
        294 12 -141 -167 -42 hvcurveto
        -140 -36 -27 -50 -39 hhcurveto
        -27 -16 9 24 3 hvcurveto
        4 32 59 262 8 35 rrcurveto
        19 -113 -87 14 -44 hhcurveto
        -143 -77 -110 -160 -32 hvcurveto
        -112 -22 18 -142 137 hhcurveto
        59 90 26 20 40 hvcurveto
        -30 20 37 -14 56 hhcurveto
        129 67 88 217 57 hvcurveto
        233 61 -76 199 -350 hhcurveto
        -155 -625 rmoveto
        -39 2 -12 58 18 80 rrcurveto
        80 18 31 76 67 hhcurveto
        22 46 -9 -5 23 hvcurveto
        -19 -80 -30 -130 -3 -34 -31 -19 -51 -20 -40 1 rrcurveto
        endchar
      </CharString>
      <CharString index="11">
        521 109 rmoveto
        -44 -19 18 26 -5 hvcurveto
        -2 12 1 15 3 14 269 -2 rcurveline
        23 85 9 32 6 37 -2 32 rlinecurve
        82 -5 -49 51 -100 hhcurveto
        -51 -45 -14 -27 -37 hvcurveto
        30 -22 -42 11 -50 hhcurveto
        -69 -127 -22 0 hvcurveto
        -21 -117 rlineto
        0 112 14 70 38 -4 -49 -25 -9 vhcurveto
        -47 1 -47 -3 -45 -8 -71 -13 -60 -40 -22 -96 rrcurveto
        -81 -20 45 -84 86 hhcurveto
        48 98 33 16 30 hvcurveto
        -34 26 50 -15 63 hhcurveto
        96 91 28 0 hvcurveto
        23 102 rlineto
        0 -103 -9 -69 vhcurveto
        -306 -6 rmoveto
        -29 -6 32 22 5 hvcurveto
        7 30 26 19 29 2 rrcurveto
        2 27 34 2 18 hhcurveto
        -9 -33 -5 -33 4 -30 rrcurveto
        -8 -33 -42 -5 -26 hhcurveto
        263 193 rmoveto
        59 15 23 41 60 hhcurveto
        35 17 -15 -23 5 hvcurveto
        3 -17 -2 -23 -6 -24 rrcurveto
        return
      </CharString>
      <CharString index="12">
        22 14 -2 -18 -5 hvcurveto
        -16 -4 -12 -8 -26 hhcurveto
        -16 -30 1 0 hvcurveto
        -20 -81 rlineto
        0 43 -11 41 69 44 37 68 16 vhcurveto
        return
      </CharString>
      <CharString index="13">
        -92 -12 48 -52 99 hhcurveto
        117 50 57 87 30 hvcurveto
        -122 hlineto
        -23 -9 -18 -16 -26 hhcurveto
        -26 -13 11 28 4 hvcurveto
        return
      </CharString>
      <CharString index="14">
        -10 120 -264 -91 rlineto
        return
      </CharString>
      <CharString index="15">
        rmoveto
        23 95 rlineto
        -94 hlineto
        45 28 48 29 22 26 11 45 rlinecurve
        71 18 -21 29 -83 hhcurveto
        -45 -75 -9 0 hvcurveto
        -21 -99 rlineto
        0 56 6 22 25 11 -3 -12 -3 vhcurveto
        -4 -15 -15 -15 -41 -27 -88 -59 rcurveline
        -22 -90 rlineto
        endchar
      </CharString>
      <CharString index="16">
        343 512 rmoveto
        -175 -86 -156 -194 -112 67 -62 96 72 73 25 0 hvcurveto
        11 99 rlineto
        0 -64 -8 -43 -55 -21 31 56 94 37 111 82 44 77 -13 0 vhcurveto
        34 98 rlineto
        0 -79 31 -70 vhcurveto
        return
      </CharString>
      <CharString index="17">
        rmoveto
        130 hlineto
        58 64 24 -64 rlineto
        122 hlineto
        -86 175 -5 callgsubr
      </CharString>
      <CharString index="18">
        79 -6 callsubr
        572 -20 hstem
        353 680 -107 callsubr
        return
      </CharString>
      <CharString index="19">
        rmoveto
        0 -62 -38 -25 vhcurveto
        -25 -62 42 -60 hhcurveto
        -48 -68 -64 0 hvcurveto
        4 -93 rlineto
        0 59 39 25 vhcurveto
        37 63 -43 50 hhcurveto
        50 64 63 0 hvcurveto
        return
      </CharString>
      <CharString index="20">
        -59 -64 -11 -54 -68 -24 27 29 27 35 29 22 12 vhcurveto
        17 -4 33 -5 35 -6 rrcurveto
        23 275 rmoveto
        -48 -22 21 35 45 31 36 48 48 22 -21 -35 -45 -32 -36 -47 hvcurveto
        return
      </CharString>
      <CharString index="21">
        130 hlineto
        127 543 rlineto
        12 hlineto
        44 -543 rlineto
        208 hlineto
        157 -39 callgsubr
        -133 hlineto
        -121 -533 rlineto
        -12 hlineto
        -36 533 rlineto
        -219 hlineto
        endchar
      </CharString>
      <CharString index="22">
        81 -120 rmoveto
        21 hlineto
        -14 -322 rlineto
        -151 hlineto
        return
      </CharString>
      <CharString index="23">
        238 0 130 -11 128 30 125 158 130 hstemhm
        313 159 hintmask 10111000
        313 hmoveto
        406 hlineto
        29 130 rlineto
        -276 hlineto
        35 147 rlineto
        221 hlineto
        29 125 rlineto
        -220 hlineto
        38 159 276 -2 30 131 rlineto
        -559 hlineto
        -308 -690 rlineto
        131 hlineto
        hintmask 01111000
        53 119 rlineto
        143 hlineto
        hintmask 10111000
        52 441 rmoveto
        52 hlineto
        hintmask 01111000
        -73 -313 7 callgsubr
        return
      </CharString>
      <CharString index="24">
        13 callsubr
        73 315 rlineto
        0 92 42 49 15 vhcurveto
        39 140 rlineto
        -75 -10 -82 -74 0 vvcurveto
        18 72 rlineto
        -133 hlineto
        return
      </CharString>
      <CharString index="25">
        rmoveto
        -48 20 -23 41 -23 vhcurveto
        -68 -24 -32 -31 -19 -78 -24 -126 rcurveline
        hintmask 11100000
        -10 -39 -21 -28 -58 -5 -22 -115 rcurveline
        133 5 66 37 34 114 rrcurveto
        0 22 122 7 24 vhcurveto
        11 42 10 22 88 23 24 95 rcurveline
        -51 27 -16 28 30 40 42 117 41 vvcurveto
        80 -63 45 -96 vhcurveto
        -31 -115 rlineto
        38 20 -18 -30 hvcurveto
        -36 -45 -115 -38 vvcurveto
        endchar
      </CharString>
      <CharString index="26">
        -66 callgsubr
        -224 -553 rlineto
        -14 hlineto
        33 543 rlineto
        -152 hlineto
        -226 -543 rlineto
        -14 hlineto
        42 553 rlineto
        endchar
      </CharString>
      <CharString index="27">
        -6 -49 rlineto
        128 hlineto
        -76 callgsubr
        return
      </CharString>
      <CharString index="28">
        31 51 -44 48 hhcurveto
        49 67 64 0 hvcurveto
        return
      </CharString>
      <CharString index="29">
        765 -63 callsubr
        return
      </CharString>
      <CharString index="30">
        -75 callsubr
        138 hlineto
        return
      </CharString>
      <CharString index="31">
        115 500 rlineto
        return
      </CharString>
      <CharString index="32">
        rmoveto
        167 175 rlineto
        -129 hlineto
        -53 -66 -29 66 rlineto
        return
      </CharString>
      <CharString index="33">
        134 -64 callgsubr
        return
      </CharString>
      <CharString index="34">
        110 hlineto
        32 -8 callsubr
        return
      </CharString>
      <CharString index="35">
        950 rmoveto
        -66 -119 227 -77 61 105 rlineto
        return
      </CharString>
      <CharString index="36">
        -24 callgsubr
        15 callgsubr
        return
      </CharString>
      <CharString index="37">
        vvcurveto
        -51 32 -26 51 41 57 11 0 vhcurveto
        return
      </CharString>
      <CharString index="38">
        -72 -24 29 73 100 37 162 71 70 hvcurveto
        return
      </CharString>
      <CharString index="39">
        104 21 -21 288 23 callgsubr
        65 12 callsubr
        57 12 callsubr
        vstem
        417 30 callgsubr
        -63 -272 rlineto
        -214 hlineto
        63 272 rlineto
        -138 16 callsubr
        66 288 rlineto
        214 hlineto
        return
      </CharString>
      <CharString index="40">
        -70 callgsubr
        13 110 rlineto
        -57 callsubr
        return
      </CharString>
      <CharString index="41">
        -138 hlineto
        return
      </CharString>
      <CharString index="42">
        788 rmoveto
        -73 callgsubr
        168 -135 rmoveto
        109 hlineto
        return
      </CharString>
      <CharString index="43">
        hlineto
        -76 callgsubr
        -134 hlineto
        return
      </CharString>
      <CharString index="44">
        rmoveto
        120 hlineto
        -71 callgsubr
        return
      </CharString>
      <CharString index="45">
        -16 callgsubr
        -85 callgsubr
        endchar
      </CharString>
      <CharString index="46">
        -68 -294 rlineto
        128 hlineto
        68 288 rlineto
        endchar
      </CharString>
      <CharString index="47">
        rmoveto
        -33 callsubr
        -79 -20 49 -38 73 hhcurveto
        78 63 39 78 19 hvcurveto
        -176 hmoveto
        -32 callgsubr
        -31 callgsubr
        return
      </CharString>
      <CharString index="48">
        -233 -69 120 629 -20 hstemhm
        114 138 -12 138 hintmask 11010000
        378 680 25 callsubr
        hintmask 11100000
        -126 -545 -18 -78 -14 -4 -53 -2 rlinecurve
        -23 -120 rlineto
        175 29 22 182 42 hvcurveto
        return
      </CharString>
      <CharString index="49">
        -60 callsubr
        -30 callsubr
        return
      </CharString>
      <CharString index="50">
        12 -12 114 296 114 return
      </CharString>
      <CharString index="51">
        138 hlineto
        return
      </CharString>
      <CharString index="52">
        -134 hlineto
        return
      </CharString>
      <CharString index="53">
        -169 -265 -48 265 rlineto
        -140 hlineto
        return
      </CharString>
      <CharString index="54">
        22 22 29 8 30 hhcurveto
        return
      </CharString>
      <CharString index="55">
        0 61 61 66 91 31 -63 -78 -33 -14 -63 -7 -30 vhcurveto
        -56 -245 -64 callsubr
        54 235 rlineto
        6 25 12 55 23 vvcurveto
        37 -4 21 -37 -32 -63 -60 0 vhcurveto
        -19 callsubr
        return
      </CharString>
      <CharString index="56">
        -15 callsubr
        hintmask 11100111
        -85 callgsubr
        endchar
      </CharString>
      <CharString index="57">
        -137 -255 17 callsubr
        105 255 rlineto
        return
      </CharString>
      <CharString index="58">
        136 hlineto
        35 153 -13 callgsubr
        return
      </CharString>
      <CharString index="59">
        21 -39 callgsubr
        -238 hlineto
        return
      </CharString>
      <CharString index="60">
        191 86 36 131 return
      </CharString>
      <CharString index="61">
        11 callgsubr
        129 560 -58 callgsubr
        endchar
      </CharString>
      <CharString index="62">
        rmoveto
        hintmask 01100000
        0 -236 -299 -317 vvcurveto
        -158 29 -97 0 vhcurveto
        hintmask 10100000
        128 hlineto
        0 -16 115 140 vvcurveto
        287 220 329 0 vhcurveto
        endchar
      </CharString>
      <CharString index="63">
        54 235 -64 callsubr
        -7 callgsubr
        -7 -29 -14 -64 -33 vvcurveto
        -72 callsubr
        -80 callgsubr
        endchar
      </CharString>
      <CharString index="64">
        hstem
        151 500 rmoveto
        345 hlineto
        -28 -111 -252 -275 rlineto
        192 hlineto
        -29 -114 rlineto
        -345 hlineto
        25 112 251 274 rlineto
        -188 hlineto
        return
      </CharString>
      <CharString index="65">
        rmoveto
        250 163 23 61 -170 169 -33 -120 80 -77 -113 -65 rlineto
        return
      </CharString>
      <CharString index="66">
        73 17 -45 18 -61 hhcurveto
        -6 hlineto
        return
      </CharString>
      <CharString index="67">
        158 2 callsubr
        -54 -814 -36 callgsubr
        return
      </CharString>
      <CharString index="68">
        680 rlineto
        return
      </CharString>
      <CharString index="69">
        -56 callgsubr
        -55 235 rlineto
        83 33 69 88 130 vvcurveto
        139 -69 55 -141 vhcurveto
        -196 16 callsubr
        50 216 rlineto
        return
      </CharString>
      <CharString index="70">
        -32 -230 112 275 109 137 109 return
      </CharString>
      <CharString index="71">
        rmoveto
        431 698 -126 44 -431 -698 rlineto
        return
      </CharString>
      <CharString index="72">
        rmoveto
        264 return
      </CharString>
      <CharString index="73">
        52 -6 callsubr
        -99 -21 120 -20 176 114 194 120 return
      </CharString>
      <CharString index="74">
        -20 20 120 160 -25 callsubr
        return
      </CharString>
      <CharString index="75">
        19 5 20 12 27 hhcurveto
        16 27 -6 -25 -6 hvcurveto
        return
      </CharString>
      <CharString index="76">
        -19 -4 -21 -12 -27 hhcurveto
        -26 -15 12 19 4 hvcurveto
        return
      </CharString>
      <CharString index="77">
        -123 hlineto
        82 -175 rlineto
        return
      </CharString>
      <CharString index="78">
        77 64 88 0 hvcurveto
        return
      </CharString>
      <CharString index="79">
        23 12 55 6 25 return
      </CharString>
      <CharString index="80">
        -21 175 -20 return
      </CharString>
      <CharString index="81">
        rmoveto
        -95 hlineto
        -50 -216 -60 callsubr
        157 -39 callgsubr
        196 hlineto
        141 69 -55 -139 -130 -69 -88 -83 -33 hvcurveto
        return
      </CharString>
      <CharString index="82">
        -3 21 -21 396 104 -104 116 return
      </CharString>
      <CharString index="83">
        32 -35 callsubr
        return
      </CharString>
      <CharString index="84">
        rmoveto
        -126 hlineto
        -112 -442 rlineto
        143 hlineto
        158 700 rmoveto
        -136 hlineto
        -35 -153 rlineto
        136 hlineto
        endchar
      </CharString>
      <CharString index="85">
        rmoveto
        327 hlineto
        25 109 rlineto
        -327 hlineto
        return
      </CharString>
      <CharString index="86">
        rmoveto
        202 869 rlineto
        -226 hlineto
        -28 -114 rlineto
        88 hlineto
        -149 -641 rlineto
        -88 hlineto
        -28 -114 rlineto
        endchar
      </CharString>
      <CharString index="87">
        rmoveto
        -202 -869 rlineto
        226 hlineto
        0 callsubr
        -88 hlineto
        149 641 rlineto
        88 hlineto
        0 callsubr
        endchar
      </CharString>
      <CharString index="88">
        -250 -163 -23 -61 170 -169 33 120 -80 77 return
      </CharString>
      <CharString index="89">
        621 rmoveto
        -18 -8 -19 -46 -12 hvcurveto
        -46 -11 -1 -20 18 hhcurveto
        18 9 20 46 11 hvcurveto
        46 12 0 19 -18 hhcurveto
        return
      </CharString>
      <CharString index="90">
        33 -8 callsubr
        return
      </CharString>
      <CharString index="91">
        38 callsubr
        -48 callgsubr
        return
      </CharString>
      <CharString index="92">
        -3 0 104 -95 -21 512 -20 return
      </CharString>
      <CharString index="93">
        -272 21 -21 700 -20 hstem
        -6 callgsubr
        vstem
        13 callsubr
        161 700 -64 callsubr
        return
      </CharString>
      <CharString index="94">
        rlineto
        -136 hlineto
        return
      </CharString>
      <CharString index="95">
        -34 -7 21 37 return
      </CharString>
      <CharString index="96">
        46 201 40 6 48 -207 rlineto
        137 hlineto
        -66 259 174 240 rlineto
        -147 hlineto
        return
      </CharString>
      <CharString index="97">
        19 callgsubr
        31 137 rlineto
        -135 hlineto
        endchar
      </CharString>
      <CharString index="98">
        93 480 rmoveto
        57 -19 25 -57 vhcurveto
        -77 hlineto
        -53 -228 rlineto
        89 hlineto
        75 42 71 75 hvcurveto
        return
      </CharString>
      <CharString index="99">
        -21 35 95 182 -20 return
      </CharString>
      <CharString index="100">
        -56 -245 rlineto
        return
      </CharString>
      <CharString index="101">
        55 134 return
      </CharString>
      <CharString index="102">
        rlineto
        -80 hlineto
        endchar
      </CharString>
      <CharString index="103">
        145 hlineto
        -63 339 217 341 rlineto
        -151 hlineto
        -176 -286 -64 -8 return
      </CharString>
      <CharString index="104">
        94 37 111 82 44 77 -13 0 vhcurveto
        34 98 rlineto
        0 -79 31 -70 vhcurveto
        endchar
      </CharString>
      <CharString index="105">
        246 0 114 386 -20 return
      </CharString>
      <CharString index="106">
        -107 -12 116 292 116 return
      </CharString>
      <CharString index="107">
        -138 -20 64 61 return
      </CharString>
      <CharString index="108">
        55 hmoveto
        -14 -61 -7 -8 -104 -54 42 -107 rcurveline
        175 77 10 15 32 138 return
      </CharString>
      <CharString index="109">
        13 hmoveto
        -77 callgsubr
        return
      </CharString>
      <CharString index="110">
        -111 hlineto
        return
      </CharString>
      <CharString index="111">
        779 -93 callsubr
        return
      </CharString>
      <CharString index="112">
        -20 callsubr
        95 -386 return
      </CharString>
      <CharString index="113">
        118 -74 117 hstemhm
        return
      </CharString>
      <CharString index="114">
        rlineto
        -116 hlineto
        return
      </CharString>
      <CharString index="115">
        -69 callgsubr
        -53 callgsubr
        return
      </CharString>
      <CharString index="116">
        119 -7 112 hintmask 11110000
        return
      </CharString>
      <CharString index="117">
        115 662 115 hstemhm
        return
      </CharString>
      <CharString index="118">
        27 120 rlineto
        -215 hlineto
        return
      </CharString>
      <CharString index="119">
        114 641 22 callsubr
        return
      </CharString>
      <CharString index="120">
        -90 38 -41 90 -41 return
      </CharString>
      <CharString index="121">
        21 -21 500 -20 return
      </CharString>
      <CharString index="122">
        -121 hlineto
        return
      </CharString>
      <CharString index="123">
        25 29 -4 32 hhcurveto
        168 85 180 154 64 -17 46 -31 return
      </CharString>
      <CharString index="124">
        rmoveto
        140 hlineto
        58 64 24 -64 rlineto
        return
      </CharString>
      <CharString index="125">
        56 245 rlineto
        return
      </CharString>
      <CharString index="126">
        rmoveto
        136 hlineto
        return
      </CharString>
      <CharString index="127">
        0 120 return
      </CharString>
      <CharString index="128">
        71 70 20 38 49 hvcurveto
        114 89 50 177 172 vvcurveto
        return
      </CharString>
      <CharString index="129">
        7 callgsubr
        endchar
      </CharString>
      <CharString index="130">
        120 hstem
        return
      </CharString>
      <CharString index="131">
        -31 callgsubr
        endchar
      </CharString>
      <CharString index="132">
        rmoveto
        28 callgsubr
      </CharString>
      <CharString index="133">
        rmoveto
        -50 callgsubr
        return
      </CharString>
      <CharString index="134">
        -21 240 -20 92 -20 hstemhm
        102 126 15 135 return
      </CharString>
      <CharString index="135">
        -74 callgsubr
        endchar
      </CharString>
      <CharString index="136">
        189 hmoveto
        -1 callsubr
        return
      </CharString>
      <CharString index="137">
        hmoveto
        -81 callsubr
        return
      </CharString>
      <CharString index="138">
        55 37 callgsubr
        return
      </CharString>
      <CharString index="139">
        hlineto
        -41 -165 rlineto
        116 hlineto
        41 165 rlineto
        return
      </CharString>
      <CharString index="140">
        -28 callsubr
        -100 hlineto
        return
      </CharString>
      <CharString index="141">
        95 19 82 45 93 hstem
        return
      </CharString>
</ttFont>
